<svg xmlns="http://www.w3.org/2000/svg" xmlns:xlink="http://www.w3.org/1999/xlink" width="500" zoomAndPan="magnify" viewBox="0 0 375 374.999991" height="500" preserveAspectRatio="xMidYMid meet" version="1.0"><defs><g/><clipPath id="981f6e14e7"><path d="M 49.859375 0 L 325.140625 0 L 325.140625 275.28125 L 49.859375 275.28125 Z M 49.859375 0 " clip-rule="nonzero"/></clipPath><clipPath id="53b3a00225"><path d="M 187.5 0 C 111.484375 0 49.859375 61.625 49.859375 137.640625 C 49.859375 213.660156 111.484375 275.28125 187.5 275.28125 C 263.515625 275.28125 325.140625 213.660156 325.140625 137.640625 C 325.140625 61.625 263.515625 0 187.5 0 Z M 187.5 0 " clip-rule="nonzero"/></clipPath><clipPath id="577df05d78"><path d="M 49.859375 0 L 325.125 0 L 325.125 275.269531 L 49.859375 275.269531 Z M 49.859375 0 " clip-rule="nonzero"/></clipPath><clipPath id="3b5c581a26"><path d="M 187.492188 0 C 111.480469 0 49.859375 61.621094 49.859375 137.632812 C 49.859375 213.648438 111.480469 275.269531 187.492188 275.269531 C 263.507812 275.269531 325.125 213.648438 325.125 137.632812 C 325.125 61.621094 263.507812 0 187.492188 0 Z M 187.492188 0 " clip-rule="nonzero"/></clipPath><clipPath id="51cfbde26b"><path d="M 207 52.757812 L 257 52.757812 L 257 117 L 207 117 Z M 207 52.757812 " clip-rule="nonzero"/></clipPath><clipPath id="2076b15561"><path d="M 72.949219 88 L 137 88 L 137 177 L 72.949219 177 Z M 72.949219 88 " clip-rule="nonzero"/></clipPath><clipPath id="5e41b7b972"><path d="M 118 52.757812 L 168 52.757812 L 168 117 L 118 117 Z M 118 52.757812 " clip-rule="nonzero"/></clipPath></defs><g clip-path="url(#981f6e14e7)"><g clip-path="url(#53b3a00225)"><path fill="#dffff0" d="M 49.859375 0 L 325.140625 0 L 325.140625 275.28125 L 49.859375 275.28125 Z M 49.859375 0 " fill-opacity="1" fill-rule="nonzero"/></g></g><g clip-path="url(#577df05d78)"><g clip-path="url(#3b5c581a26)"><path stroke-linecap="butt" transform="matrix(1.983467, 0, 0, 1.983467, 49.858844, 0.000000000000028187)" fill="none" stroke-linejoin="miter" d="M 69.390295 -0.000000000000014211 C 31.067637 -0.000000000000014211 0.000267498 31.067369 0.000267498 69.390028 C 0.000267498 107.714656 31.067637 138.782025 69.390295 138.782025 C 107.714923 138.782025 138.780323 107.714656 138.780323 69.390028 C 138.780323 31.067369 107.714923 -0.000000000000014211 69.390295 -0.000000000000014211 Z M 69.390295 -0.000000000000014211 " stroke="#569da6" stroke-width="3.025007" stroke-opacity="1" stroke-miterlimit="4"/></g></g><g fill="#ffffff" fill-opacity="1"><g transform="translate(118.694846, 355.149885)"><g><path d="M 17.765625 -36.875 C 21.128906 -36.875 23.613281 -36.007812 25.21875 -34.28125 C 26.820312 -32.550781 27.625 -29.664062 27.625 -25.625 L 27.625 0 L 3.921875 0 L 3.921875 -38.953125 L 8.953125 -39.546875 L 8.953125 -36.875 Z M 8.953125 -4.515625 L 22.578125 -4.515625 L 22.578125 -25.171875 C 22.578125 -27.640625 22.15625 -29.453125 21.3125 -30.609375 C 20.476562 -31.773438 18.851562 -32.359375 16.4375 -32.359375 L 8.953125 -32.359375 Z M 8.953125 -4.515625 "/></g></g></g><g fill="#ffffff" fill-opacity="1"><g transform="translate(150.013466, 355.149885)"><g><path d="M 7.25 -15.328125 L 7.25 -32.359375 L 1.1875 -32.359375 L 1.1875 -36.875 L 12.296875 -36.875 L 12.296875 -15.328125 Z M 7.25 -15.328125 "/></g></g></g><g fill="#ffffff" fill-opacity="1"><g transform="translate(166.15404, 355.149885)"><g><path d="M 2.078125 0 L 2.078125 -4.515625 L 15.703125 -4.515625 C 15.796875 -6.046875 15.878906 -7.785156 15.953125 -9.734375 C 16.023438 -11.679688 16.085938 -13.65625 16.140625 -15.65625 C 16.191406 -17.65625 16.21875 -19.472656 16.21875 -21.109375 C 16.21875 -24.117188 16.019531 -26.4375 15.625 -28.0625 C 15.226562 -29.6875 14.507812 -30.804688 13.46875 -31.421875 C 12.4375 -32.046875 10.910156 -32.359375 8.890625 -32.359375 L 2.8125 -32.359375 L 2.8125 -36.875 L 9.78125 -36.875 C 12.6875 -36.875 14.976562 -36.425781 16.65625 -35.53125 C 18.332031 -34.644531 19.515625 -33.15625 20.203125 -31.0625 C 20.898438 -28.96875 21.25 -26.039062 21.25 -22.28125 C 21.25 -20.207031 21.195312 -17.847656 21.09375 -15.203125 C 21 -12.566406 20.863281 -9.914062 20.6875 -7.25 C 20.519531 -4.59375 20.3125 -2.175781 20.0625 0 Z M 2.078125 0 "/></g></g></g><g fill="#ffffff" fill-opacity="1"><g transform="translate(190.661062, 355.149885)"><g><path d="M 7.25 -15.328125 L 7.25 -32.359375 L 1.1875 -32.359375 L 1.1875 -36.875 L 12.296875 -36.875 L 12.296875 -15.328125 Z M 7.25 -15.328125 "/></g></g></g><g fill="#ffffff" fill-opacity="1"><g transform="translate(206.801636, 355.149885)"><g><path d="M 6.59375 -36.875 C 8.914062 -36.875 10.691406 -36.566406 11.921875 -35.953125 C 13.148438 -35.335938 14 -34.238281 14.46875 -32.65625 C 14.9375 -31.070312 15.171875 -28.800781 15.171875 -25.84375 L 15.03125 0 L 1.84375 0 L 1.84375 -4.515625 L 10.078125 -4.515625 L 10.140625 -25.765625 C 10.191406 -28.429688 9.882812 -30.195312 9.21875 -31.0625 C 8.550781 -31.925781 7.207031 -32.359375 5.1875 -32.359375 L 2.8125 -32.359375 L 2.8125 -36.875 Z M 6.59375 -36.875 "/></g></g></g><g fill="#ffffff" fill-opacity="1"><g transform="translate(225.607614, 355.149885)"><g><path d="M 17.109375 -36.875 C 20.460938 -36.875 22.941406 -36.007812 24.546875 -34.28125 C 26.148438 -32.550781 26.953125 -29.664062 26.953125 -25.625 L 26.953125 0 L 21.921875 0 L 21.921875 -25.171875 C 21.921875 -27.640625 21.5 -29.453125 20.65625 -30.609375 C 19.820312 -31.773438 18.191406 -32.359375 15.765625 -32.359375 L 8.953125 -32.359375 L 8.953125 0 L 3.921875 0 L 3.921875 -38.953125 L 8.953125 -39.546875 L 8.953125 -36.875 Z M 17.109375 -36.875 "/></g></g></g><path fill="#569da6" d="M 193.292969 212.777344 L 270.957031 212.777344 C 268.027344 192.875 258.5 176.714844 245.992188 169.714844 C 252.566406 165.265625 256.886719 157.738281 256.886719 149.199219 C 256.886719 135.523438 245.800781 124.441406 232.125 124.441406 C 218.449219 124.441406 207.363281 135.523438 207.363281 149.199219 C 207.363281 157.738281 211.683594 165.265625 218.257812 169.714844 C 205.75 176.714844 196.222656 192.875 193.292969 212.777344 " fill-opacity="1" fill-rule="nonzero"/><path fill="#569da6" d="M 238.402344 113.289062 C 238.402344 113.933594 238.511719 114.550781 238.570312 115.183594 C 254.613281 118.21875 266.796875 132.292969 266.796875 149.199219 C 266.796875 156.238281 264.664062 162.988281 260.832031 168.648438 C 263.316406 171.085938 265.609375 173.84375 267.714844 176.863281 L 301.996094 176.863281 C 299.070312 156.964844 289.539062 140.800781 277.035156 133.804688 C 283.605469 129.351562 287.929688 121.828125 287.929688 113.289062 C 287.929688 99.613281 276.84375 88.523438 263.164062 88.523438 C 249.488281 88.523438 238.402344 99.613281 238.402344 113.289062 " fill-opacity="1" fill-rule="nonzero"/><g clip-path="url(#51cfbde26b)"><path fill="#569da6" d="M 222.132812 113.289062 C 222.132812 114.285156 222.019531 115.261719 221.921875 116.238281 C 224.09375 115.566406 226.335938 115.117188 228.664062 114.878906 C 228.632812 114.347656 228.496094 113.828125 228.496094 113.289062 C 228.496094 96.375 240.6875 82.300781 256.734375 79.269531 C 256.785156 78.683594 256.886719 78.113281 256.886719 77.507812 C 256.886719 63.832031 245.800781 52.746094 232.125 52.746094 C 218.449219 52.746094 207.363281 63.832031 207.363281 77.507812 C 207.363281 80.730469 208.144531 83.726562 209.265625 86.550781 C 217.050781 92.914062 222.132812 102.472656 222.132812 113.289062 " fill-opacity="1" fill-rule="nonzero"/></g><path fill="#569da6" d="M 103.972656 212.777344 L 181.636719 212.777344 C 178.707031 192.875 169.175781 176.714844 156.671875 169.714844 C 163.246094 165.265625 167.566406 157.738281 167.566406 149.199219 C 167.566406 135.523438 156.480469 124.441406 142.804688 124.441406 C 129.125 124.441406 118.039062 135.523438 118.039062 149.199219 C 118.039062 157.738281 122.363281 165.265625 128.933594 169.714844 C 116.429688 176.714844 106.902344 192.875 103.972656 212.777344 " fill-opacity="1" fill-rule="nonzero"/><path fill="#569da6" d="M 164.683594 122.53125 C 172.421875 128.894531 177.472656 138.417969 177.472656 149.199219 C 177.472656 156.238281 175.34375 162.988281 171.507812 168.648438 C 173.992188 171.085938 176.289062 173.84375 178.394531 176.863281 L 196.535156 176.863281 C 198.640625 173.84375 200.9375 171.085938 203.417969 168.648438 C 199.585938 162.988281 197.453125 156.238281 197.453125 149.199219 C 197.453125 138.417969 202.503906 128.894531 210.246094 122.53125 C 211.417969 119.652344 212.226562 116.589844 212.226562 113.289062 C 212.226562 99.613281 201.140625 88.523438 187.464844 88.523438 C 173.789062 88.523438 162.699219 99.613281 162.699219 113.289062 C 162.699219 116.589844 163.511719 119.652344 164.683594 122.53125 " fill-opacity="1" fill-rule="nonzero"/><g clip-path="url(#2076b15561)"><path fill="#569da6" d="M 72.929688 176.863281 L 107.214844 176.863281 C 109.316406 173.84375 111.617188 171.085938 114.097656 168.648438 C 110.261719 162.988281 108.132812 156.238281 108.132812 149.199219 C 108.132812 132.292969 120.316406 118.21875 136.355469 115.183594 C 136.414062 114.550781 136.527344 113.933594 136.527344 113.289062 C 136.527344 99.613281 125.4375 88.523438 111.765625 88.523438 C 98.085938 88.523438 87 99.613281 87 113.289062 C 87 121.828125 91.320312 129.351562 97.894531 133.804688 C 85.390625 140.800781 75.859375 156.964844 72.929688 176.863281 " fill-opacity="1" fill-rule="nonzero"/></g><g clip-path="url(#5e41b7b972)"><path fill="#569da6" d="M 146.433594 113.289062 C 146.433594 113.828125 146.296875 114.347656 146.265625 114.878906 C 148.59375 115.117188 150.835938 115.566406 153.003906 116.238281 C 152.90625 115.261719 152.792969 114.285156 152.792969 113.289062 C 152.792969 102.472656 157.878906 92.914062 165.664062 86.550781 C 166.785156 83.726562 167.566406 80.730469 167.566406 77.507812 C 167.566406 63.832031 156.480469 52.746094 142.804688 52.746094 C 129.125 52.746094 118.039062 63.832031 118.039062 77.507812 C 118.039062 78.113281 118.140625 78.683594 118.191406 79.269531 C 134.238281 82.296875 146.433594 96.375 146.433594 113.289062 " fill-opacity="1" fill-rule="nonzero"/></g></svg>