<svg xmlns="http://www.w3.org/2000/svg" xmlns:xlink="http://www.w3.org/1999/xlink" width="500" zoomAndPan="magnify" viewBox="0 0 375 374.999991" height="500" preserveAspectRatio="xMidYMid meet" version="1.0"><defs><g/><clipPath id="a50ea00fc3"><path d="M 51.847656 0 L 319.964844 0 L 319.964844 268.117188 L 51.847656 268.117188 Z M 51.847656 0 " clip-rule="nonzero"/></clipPath><clipPath id="fbca60fd43"><path d="M 185.90625 0 C 111.867188 0 51.847656 60.019531 51.847656 134.058594 C 51.847656 208.097656 111.867188 268.117188 185.90625 268.117188 C 259.945312 268.117188 319.96875 208.097656 319.96875 134.058594 C 319.96875 60.019531 259.945312 0 185.90625 0 Z M 185.90625 0 " clip-rule="nonzero"/></clipPath><clipPath id="5a7bb60754"><path d="M 51.847656 0 L 319.941406 0 L 319.941406 268.09375 L 51.847656 268.09375 Z M 51.847656 0 " clip-rule="nonzero"/></clipPath><clipPath id="1fc07d624b"><path d="M 185.894531 0 C 111.863281 0 51.847656 60.015625 51.847656 134.046875 C 51.847656 208.078125 111.863281 268.09375 185.894531 268.09375 C 259.925781 268.09375 319.941406 208.078125 319.941406 134.046875 C 319.941406 60.015625 259.925781 0 185.894531 0 Z M 185.894531 0 " clip-rule="nonzero"/></clipPath><clipPath id="3d120408f9"><path d="M 116.164062 42.796875 L 254 42.796875 L 254 224.898438 L 116.164062 224.898438 Z M 116.164062 42.796875 " clip-rule="nonzero"/></clipPath></defs><g clip-path="url(#a50ea00fc3)"><g clip-path="url(#fbca60fd43)"><path fill="#dffff0" d="M 51.847656 0 L 319.96875 0 L 319.96875 268.117188 L 51.847656 268.117188 Z M 51.847656 0 " fill-opacity="1" fill-rule="nonzero"/></g></g><g clip-path="url(#5a7bb60754)"><g clip-path="url(#1fc07d624b)"><path stroke-linecap="butt" transform="matrix(2.023354, 0, 0, 2.023354, 51.848252, -0.000000000000115014)" fill="none" stroke-linejoin="miter" d="M 66.24953 0.000000000000056843 C 29.661155 0.000000000000056843 -0.000294583 29.661449 -0.000294583 66.249824 C -0.000294583 102.838199 29.661155 132.499648 66.24953 132.499648 C 102.837904 132.499648 132.499354 102.838199 132.499354 66.249824 C 132.499354 29.661449 102.837904 0.000000000000056843 66.24953 0.000000000000056843 Z M 66.24953 0.000000000000056843 " stroke="#569da6" stroke-width="2.965373" stroke-opacity="1" stroke-miterlimit="4"/></g></g><g fill="#ffffff" fill-opacity="1"><g transform="translate(36.110449, 352.203519)"><g><path d="M 21.609375 0 L 21.609375 -25.6875 C 21.609375 -28.195312 21.175781 -30.039062 20.3125 -31.21875 C 19.457031 -32.40625 17.796875 -33 15.328125 -33 L 3.546875 -33 L 3.546875 -37.609375 L 16.6875 -37.609375 C 20.113281 -37.609375 22.644531 -36.726562 24.28125 -34.96875 C 25.914062 -33.207031 26.734375 -30.265625 26.734375 -26.140625 L 26.734375 0 Z M 4.15625 0 L 4.15625 -21.90625 L 9.140625 -21.90625 L 9.140625 0 Z M 4.15625 0 "/></g></g></g><g fill="#ffffff" fill-opacity="1"><g transform="translate(66.623873, 352.203519)"><g><path d="M 15.78125 0 L 15.78125 -25.6875 C 15.78125 -28.195312 15.351562 -30.039062 14.5 -31.21875 C 13.644531 -32.40625 11.984375 -33 9.515625 -33 L 1.0625 -33 L 1.0625 -37.609375 L 10.875 -37.609375 C 14.300781 -37.609375 16.832031 -36.726562 18.46875 -34.96875 C 20.101562 -33.207031 20.921875 -30.265625 20.921875 -26.140625 L 20.921875 0 Z M 15.78125 0 "/></g></g></g><g fill="#ffffff" fill-opacity="1"><g transform="translate(91.321603, 352.203519)"><g><path d="M 33.3125 -37.609375 C 33.40625 -36.953125 33.476562 -36.082031 33.53125 -35 C 33.582031 -33.925781 33.617188 -32.847656 33.640625 -31.765625 C 33.671875 -30.679688 33.6875 -29.785156 33.6875 -29.078125 C 33.6875 -22.984375 32.691406 -17.707031 30.703125 -13.25 C 28.710938 -8.800781 25.828125 -5.390625 22.046875 -3.015625 C 18.273438 -0.648438 13.722656 0.476562 8.390625 0.375 L 6.125 0.078125 L 2.71875 -37.609375 L 7.859375 -37.609375 L 9.359375 -18.65625 C 11.878906 -19.007812 13.601562 -20.164062 14.53125 -22.125 C 15.46875 -24.09375 15.9375 -26.835938 15.9375 -30.359375 C 15.9375 -30.960938 15.910156 -31.71875 15.859375 -32.625 C 15.804688 -33.53125 15.753906 -34.445312 15.703125 -35.375 C 15.660156 -36.3125 15.613281 -37.054688 15.5625 -37.609375 L 20.46875 -37.609375 C 20.570312 -36.503906 20.660156 -35.375 20.734375 -34.21875 C 20.804688 -33.0625 20.84375 -31.953125 20.84375 -30.890625 C 20.84375 -25.753906 19.945312 -21.851562 18.15625 -19.1875 C 16.375 -16.519531 13.546875 -14.929688 9.671875 -14.421875 L 10.5 -4.078125 C 16.394531 -4.535156 20.875 -7.039062 23.9375 -11.59375 C 27.007812 -16.144531 28.546875 -22.300781 28.546875 -30.0625 C 28.546875 -31.21875 28.492188 -32.472656 28.390625 -33.828125 C 28.296875 -35.191406 28.171875 -36.453125 28.015625 -37.609375 Z M 33.3125 -37.609375 "/></g></g></g><g fill="#ffffff" fill-opacity="1"><g transform="translate(127.19752, 352.203519)"><g><path d="M 2.109375 0 L 2.109375 -4.609375 L 16.015625 -4.609375 C 16.109375 -6.171875 16.191406 -7.945312 16.265625 -9.9375 C 16.347656 -11.925781 16.414062 -13.9375 16.46875 -15.96875 C 16.519531 -18.007812 16.546875 -19.863281 16.546875 -21.53125 C 16.546875 -24.601562 16.34375 -26.96875 15.9375 -28.625 C 15.53125 -30.289062 14.796875 -31.4375 13.734375 -32.0625 C 12.679688 -32.6875 11.125 -33 9.0625 -33 L 2.875 -33 L 2.875 -37.609375 L 9.96875 -37.609375 C 12.9375 -37.609375 15.273438 -37.15625 16.984375 -36.25 C 18.703125 -35.34375 19.910156 -33.816406 20.609375 -31.671875 C 21.316406 -29.535156 21.671875 -26.554688 21.671875 -22.734375 C 21.671875 -20.617188 21.617188 -18.210938 21.515625 -15.515625 C 21.421875 -12.828125 21.285156 -10.125 21.109375 -7.40625 C 20.929688 -4.6875 20.71875 -2.21875 20.46875 0 Z M 2.109375 0 "/></g></g></g><g fill="#ffffff" fill-opacity="1"><g transform="translate(152.197383, 352.203519)"><g><path d="M 21.609375 0 L 21.609375 -25.6875 C 21.609375 -28.195312 21.175781 -30.039062 20.3125 -31.21875 C 19.457031 -32.40625 17.796875 -33 15.328125 -33 L 3.546875 -33 L 3.546875 -37.609375 L 16.6875 -37.609375 C 20.113281 -37.609375 22.644531 -36.726562 24.28125 -34.96875 C 25.914062 -33.207031 26.734375 -30.265625 26.734375 -26.140625 L 26.734375 0 Z M 4.15625 0 L 4.15625 -21.90625 L 9.140625 -21.90625 L 9.140625 0 Z M 4.15625 0 "/></g></g></g><g fill="#ffffff" fill-opacity="1"><g transform="translate(182.710807, 352.203519)"><g/></g></g><g fill="#ffffff" fill-opacity="1"><g transform="translate(194.644263, 352.203519)"><g><path d="M 19.796875 -37.609375 C 23.265625 -37.609375 25.816406 -36.726562 27.453125 -34.96875 C 29.085938 -33.207031 29.90625 -30.265625 29.90625 -26.140625 L 29.90625 0 L 24.78125 0 L 24.78125 -25.6875 C 24.78125 -28.195312 24.335938 -30.039062 23.453125 -31.21875 C 22.566406 -32.40625 20.890625 -33 18.421875 -33 L 12.015625 -33 L 12.015625 0 L 2.1875 0 L 2.1875 -4.609375 L 6.875 -4.609375 L 6.875 -33 L 2.34375 -33 L 2.34375 -37.609375 Z M 19.796875 -37.609375 "/></g></g></g><g fill="#ffffff" fill-opacity="1"><g transform="translate(228.254343, 352.203519)"><g><path d="M 7.40625 -15.640625 L 7.40625 -33 L 1.203125 -33 L 1.203125 -37.609375 L 12.53125 -37.609375 L 12.53125 -15.640625 Z M 7.40625 -15.640625 "/></g></g></g><g fill="#ffffff" fill-opacity="1"><g transform="translate(244.719507, 352.203519)"><g><path d="M 6.71875 -37.609375 C 9.082031 -37.609375 10.894531 -37.289062 12.15625 -36.65625 C 13.414062 -36.03125 14.285156 -34.910156 14.765625 -33.296875 C 15.242188 -31.691406 15.484375 -29.378906 15.484375 -26.359375 L 15.328125 0 L 1.890625 0 L 1.890625 -4.609375 L 10.265625 -4.609375 L 10.34375 -26.28125 C 10.394531 -29 10.082031 -30.796875 9.40625 -31.671875 C 8.726562 -32.554688 7.351562 -33 5.28125 -33 L 2.875 -33 L 2.875 -37.609375 Z M 6.71875 -37.609375 "/></g></g></g><g fill="#ffffff" fill-opacity="1"><g transform="translate(263.903676, 352.203519)"><g><path d="M 2.109375 0 L 2.109375 -4.609375 L 16.015625 -4.609375 C 16.109375 -6.171875 16.191406 -7.945312 16.265625 -9.9375 C 16.347656 -11.925781 16.414062 -13.9375 16.46875 -15.96875 C 16.519531 -18.007812 16.546875 -19.863281 16.546875 -21.53125 C 16.546875 -24.601562 16.34375 -26.96875 15.9375 -28.625 C 15.53125 -30.289062 14.796875 -31.4375 13.734375 -32.0625 C 12.679688 -32.6875 11.125 -33 9.0625 -33 L 2.875 -33 L 2.875 -37.609375 L 9.96875 -37.609375 C 12.9375 -37.609375 15.273438 -37.15625 16.984375 -36.25 C 18.703125 -35.34375 19.910156 -33.816406 20.609375 -31.671875 C 21.316406 -29.535156 21.671875 -26.554688 21.671875 -22.734375 C 21.671875 -20.617188 21.617188 -18.210938 21.515625 -15.515625 C 21.421875 -12.828125 21.285156 -10.125 21.109375 -7.40625 C 20.929688 -4.6875 20.71875 -2.21875 20.46875 0 Z M 2.109375 0 "/></g></g></g><g fill="#ffffff" fill-opacity="1"><g transform="translate(288.903539, 352.203519)"><g><path d="M 12.3125 -37.609375 L 12.3125 0 L 7.171875 0 L 7.171875 -33 L 1.203125 -33 L 1.203125 -37.609375 Z M 12.3125 -37.609375 "/></g></g></g><g fill="#ffffff" fill-opacity="1"><g transform="translate(305.217637, 352.203519)"><g><path d="M 19.796875 -37.609375 C 23.265625 -37.609375 25.816406 -36.726562 27.453125 -34.96875 C 29.085938 -33.207031 29.90625 -30.265625 29.90625 -26.140625 L 29.90625 0 L 24.78125 0 L 24.78125 -25.6875 C 24.78125 -28.195312 24.335938 -30.039062 23.453125 -31.21875 C 22.566406 -32.40625 20.890625 -33 18.421875 -33 L 12.015625 -33 L 12.015625 0 L 2.1875 0 L 2.1875 -4.609375 L 6.875 -4.609375 L 6.875 -33 L 2.34375 -33 L 2.34375 -37.609375 Z M 19.796875 -37.609375 "/></g></g></g><path fill="#569da6" d="M 237.554688 62.757812 C 237.554688 63.136719 237.480469 63.5 237.335938 63.847656 C 237.191406 64.199219 236.988281 64.507812 236.71875 64.773438 C 236.453125 65.042969 236.144531 65.246094 235.792969 65.390625 C 235.445312 65.535156 235.082031 65.609375 234.703125 65.609375 C 234.324219 65.609375 233.960938 65.535156 233.613281 65.390625 C 233.261719 65.246094 232.953125 65.042969 232.6875 64.773438 C 232.417969 64.507812 232.210938 64.199219 232.066406 63.847656 C 231.921875 63.5 231.851562 63.136719 231.851562 62.757812 C 231.851562 62.378906 231.921875 62.015625 232.066406 61.664062 C 232.210938 61.316406 232.417969 61.007812 232.6875 60.742188 C 232.953125 60.472656 233.261719 60.265625 233.613281 60.121094 C 233.960938 59.976562 234.324219 59.90625 234.703125 59.90625 C 235.082031 59.90625 235.445312 59.976562 235.792969 60.121094 C 236.144531 60.265625 236.453125 60.472656 236.71875 60.742188 C 236.988281 61.007812 237.191406 61.316406 237.335938 61.664062 C 237.480469 62.015625 237.554688 62.378906 237.554688 62.757812 Z M 237.554688 62.757812 " fill-opacity="1" fill-rule="nonzero"/><path fill="#569da6" d="M 223.296875 62.757812 C 223.296875 63.136719 223.222656 63.5 223.078125 63.847656 C 222.933594 64.199219 222.726562 64.507812 222.460938 64.773438 C 222.191406 65.042969 221.882812 65.246094 221.535156 65.390625 C 221.1875 65.535156 220.820312 65.609375 220.445312 65.609375 C 220.066406 65.609375 219.703125 65.535156 219.351562 65.390625 C 219.003906 65.246094 218.695312 65.042969 218.425781 64.773438 C 218.160156 64.507812 217.953125 64.199219 217.808594 63.847656 C 217.664062 63.5 217.59375 63.136719 217.59375 62.757812 C 217.59375 62.378906 217.664062 62.015625 217.808594 61.664062 C 217.953125 61.316406 218.160156 61.007812 218.425781 60.742188 C 218.695312 60.472656 219.003906 60.265625 219.351562 60.121094 C 219.703125 59.976562 220.066406 59.90625 220.445312 59.90625 C 220.820312 59.90625 221.1875 59.976562 221.535156 60.121094 C 221.882812 60.265625 222.191406 60.472656 222.460938 60.742188 C 222.726562 61.007812 222.933594 61.316406 223.078125 61.664062 C 223.222656 62.015625 223.296875 62.378906 223.296875 62.757812 Z M 223.296875 62.757812 " fill-opacity="1" fill-rule="nonzero"/><path fill="#569da6" d="M 209.035156 62.757812 C 209.035156 63.136719 208.964844 63.5 208.820312 63.847656 C 208.675781 64.199219 208.46875 64.507812 208.203125 64.773438 C 207.933594 65.042969 207.625 65.246094 207.277344 65.390625 C 206.925781 65.535156 206.5625 65.609375 206.183594 65.609375 C 205.808594 65.609375 205.441406 65.535156 205.09375 65.390625 C 204.746094 65.246094 204.4375 65.042969 204.167969 64.773438 C 203.902344 64.507812 203.695312 64.199219 203.550781 63.847656 C 203.40625 63.5 203.332031 63.136719 203.332031 62.757812 C 203.332031 62.378906 203.40625 62.015625 203.550781 61.664062 C 203.695312 61.316406 203.902344 61.007812 204.167969 60.742188 C 204.4375 60.472656 204.746094 60.265625 205.09375 60.121094 C 205.441406 59.976562 205.808594 59.90625 206.183594 59.90625 C 206.5625 59.90625 206.925781 59.976562 207.277344 60.121094 C 207.625 60.265625 207.933594 60.472656 208.203125 60.742188 C 208.46875 61.007812 208.675781 61.316406 208.820312 61.664062 C 208.964844 62.015625 209.035156 62.378906 209.035156 62.757812 Z M 209.035156 62.757812 " fill-opacity="1" fill-rule="nonzero"/><path fill="#569da6" d="M 194.777344 62.757812 C 194.777344 63.136719 194.707031 63.5 194.5625 63.847656 C 194.417969 64.199219 194.210938 64.507812 193.941406 64.773438 C 193.675781 65.042969 193.367188 65.246094 193.019531 65.390625 C 192.667969 65.535156 192.304688 65.609375 191.925781 65.609375 C 191.546875 65.609375 191.183594 65.535156 190.835938 65.390625 C 190.484375 65.246094 190.175781 65.042969 189.910156 64.773438 C 189.640625 64.507812 189.4375 64.199219 189.292969 63.847656 C 189.148438 63.5 189.074219 63.136719 189.074219 62.757812 C 189.074219 62.378906 189.148438 62.015625 189.292969 61.664062 C 189.4375 61.316406 189.640625 61.007812 189.910156 60.742188 C 190.175781 60.472656 190.484375 60.265625 190.835938 60.121094 C 191.183594 59.976562 191.546875 59.90625 191.925781 59.90625 C 192.304688 59.90625 192.667969 59.976562 193.019531 60.121094 C 193.367188 60.265625 193.675781 60.472656 193.941406 60.742188 C 194.210938 61.007812 194.417969 61.316406 194.5625 61.664062 C 194.707031 62.015625 194.777344 62.378906 194.777344 62.757812 Z M 194.777344 62.757812 " fill-opacity="1" fill-rule="nonzero"/><path fill="#569da6" d="M 180.519531 62.757812 C 180.519531 63.136719 180.445312 63.5 180.300781 63.847656 C 180.15625 64.199219 179.953125 64.507812 179.683594 64.773438 C 179.417969 65.042969 179.109375 65.246094 178.757812 65.390625 C 178.410156 65.535156 178.046875 65.609375 177.667969 65.609375 C 177.289062 65.609375 176.925781 65.535156 176.574219 65.390625 C 176.226562 65.246094 175.917969 65.042969 175.652344 64.773438 C 175.382812 64.507812 175.175781 64.199219 175.03125 63.847656 C 174.886719 63.5 174.816406 63.136719 174.816406 62.757812 C 174.816406 62.378906 174.886719 62.015625 175.03125 61.664062 C 175.175781 61.316406 175.382812 61.007812 175.652344 60.742188 C 175.917969 60.472656 176.226562 60.265625 176.574219 60.121094 C 176.925781 59.976562 177.289062 59.90625 177.667969 59.90625 C 178.046875 59.90625 178.410156 59.976562 178.757812 60.121094 C 179.109375 60.265625 179.417969 60.472656 179.683594 60.742188 C 179.953125 61.007812 180.15625 61.316406 180.300781 61.664062 C 180.445312 62.015625 180.519531 62.378906 180.519531 62.757812 Z M 180.519531 62.757812 " fill-opacity="1" fill-rule="nonzero"/><path fill="#569da6" d="M 166.261719 62.757812 C 166.261719 63.136719 166.1875 63.5 166.042969 63.847656 C 165.898438 64.199219 165.691406 64.507812 165.425781 64.773438 C 165.15625 65.042969 164.847656 65.246094 164.5 65.390625 C 164.152344 65.535156 163.785156 65.609375 163.410156 65.609375 C 163.03125 65.609375 162.667969 65.535156 162.316406 65.390625 C 161.96875 65.246094 161.660156 65.042969 161.390625 64.773438 C 161.125 64.507812 160.917969 64.199219 160.773438 63.847656 C 160.628906 63.5 160.558594 63.136719 160.558594 62.757812 C 160.558594 62.378906 160.628906 62.015625 160.773438 61.664062 C 160.917969 61.316406 161.125 61.007812 161.390625 60.742188 C 161.660156 60.472656 161.96875 60.265625 162.316406 60.121094 C 162.667969 59.976562 163.03125 59.90625 163.410156 59.90625 C 163.785156 59.90625 164.152344 59.976562 164.5 60.121094 C 164.847656 60.265625 165.15625 60.472656 165.425781 60.742188 C 165.691406 61.007812 165.898438 61.316406 166.042969 61.664062 C 166.1875 62.015625 166.261719 62.378906 166.261719 62.757812 Z M 166.261719 62.757812 " fill-opacity="1" fill-rule="nonzero"/><path fill="#569da6" d="M 152 62.757812 C 152 63.136719 151.929688 63.5 151.785156 63.847656 C 151.640625 64.199219 151.433594 64.507812 151.167969 64.773438 C 150.898438 65.042969 150.589844 65.246094 150.242188 65.390625 C 149.890625 65.535156 149.527344 65.609375 149.148438 65.609375 C 148.773438 65.609375 148.40625 65.535156 148.058594 65.390625 C 147.710938 65.246094 147.402344 65.042969 147.132812 64.773438 C 146.867188 64.507812 146.660156 64.199219 146.515625 63.847656 C 146.371094 63.5 146.296875 63.136719 146.296875 62.757812 C 146.296875 62.378906 146.371094 62.015625 146.515625 61.664062 C 146.660156 61.316406 146.867188 61.007812 147.132812 60.742188 C 147.402344 60.472656 147.710938 60.265625 148.058594 60.121094 C 148.40625 59.976562 148.773438 59.90625 149.148438 59.90625 C 149.527344 59.90625 149.890625 59.976562 150.242188 60.121094 C 150.589844 60.265625 150.898438 60.472656 151.167969 60.742188 C 151.433594 61.007812 151.640625 61.316406 151.785156 61.664062 C 151.929688 62.015625 152 62.378906 152 62.757812 Z M 152 62.757812 " fill-opacity="1" fill-rule="nonzero"/><path fill="#569da6" d="M 137.742188 62.757812 C 137.742188 63.136719 137.671875 63.5 137.527344 63.847656 C 137.382812 64.199219 137.175781 64.507812 136.90625 64.773438 C 136.640625 65.042969 136.332031 65.246094 135.980469 65.390625 C 135.632812 65.535156 135.269531 65.609375 134.890625 65.609375 C 134.511719 65.609375 134.148438 65.535156 133.800781 65.390625 C 133.449219 65.246094 133.140625 65.042969 132.875 64.773438 C 132.605469 64.507812 132.402344 64.199219 132.257812 63.847656 C 132.113281 63.5 132.039062 63.136719 132.039062 62.757812 C 132.039062 62.378906 132.113281 62.015625 132.257812 61.664062 C 132.402344 61.316406 132.605469 61.007812 132.875 60.742188 C 133.140625 60.472656 133.449219 60.265625 133.800781 60.121094 C 134.148438 59.976562 134.511719 59.90625 134.890625 59.90625 C 135.269531 59.90625 135.632812 59.976562 135.980469 60.121094 C 136.332031 60.265625 136.640625 60.472656 136.90625 60.742188 C 137.175781 61.007812 137.382812 61.316406 137.527344 61.664062 C 137.671875 62.015625 137.742188 62.378906 137.742188 62.757812 Z M 137.742188 62.757812 " fill-opacity="1" fill-rule="nonzero"/><path fill="#569da6" d="M 156.277344 79.867188 C 156.277344 76.730469 153.710938 74.164062 150.574219 74.164062 L 139.167969 74.164062 C 136.03125 74.164062 133.464844 76.730469 133.464844 79.867188 L 133.464844 88.421875 C 133.464844 91.558594 136.03125 94.125 139.167969 94.125 L 150.574219 94.125 C 153.710938 94.125 156.277344 91.558594 156.277344 88.421875 Z M 139.167969 88.421875 L 139.167969 79.867188 L 150.574219 79.867188 L 150.574219 88.421875 Z M 139.167969 88.421875 " fill-opacity="1" fill-rule="nonzero"/><path fill="#569da6" d="M 233.277344 85.570312 L 164.835938 85.570312 C 163.265625 85.570312 161.984375 86.855469 161.984375 88.421875 C 161.984375 89.992188 163.265625 91.273438 164.835938 91.273438 L 233.277344 91.273438 C 234.84375 91.273438 236.128906 89.992188 236.128906 88.421875 C 236.128906 86.855469 234.84375 85.570312 233.277344 85.570312 Z M 233.277344 85.570312 " fill-opacity="1" fill-rule="nonzero"/><path fill="#569da6" d="M 156.277344 108.386719 C 156.277344 105.25 153.710938 102.683594 150.574219 102.683594 L 139.167969 102.683594 C 136.03125 102.683594 133.464844 105.25 133.464844 108.386719 L 133.464844 116.941406 C 133.464844 120.078125 136.03125 122.644531 139.167969 122.644531 L 150.574219 122.644531 C 153.710938 122.644531 156.277344 120.078125 156.277344 116.941406 Z M 139.167969 116.941406 L 139.167969 108.386719 L 150.574219 108.386719 L 150.574219 116.941406 Z M 139.167969 116.941406 " fill-opacity="1" fill-rule="nonzero"/><path fill="#569da6" d="M 236.128906 116.941406 C 236.128906 115.371094 234.84375 114.089844 233.277344 114.089844 L 164.835938 114.089844 C 163.265625 114.089844 161.984375 115.371094 161.984375 116.941406 C 161.984375 118.507812 163.265625 119.792969 164.835938 119.792969 L 233.277344 119.792969 C 234.84375 119.792969 236.128906 118.507812 236.128906 116.941406 Z M 236.128906 116.941406 " fill-opacity="1" fill-rule="nonzero"/><path fill="#569da6" d="M 156.277344 136.902344 C 156.277344 133.765625 153.710938 131.199219 150.574219 131.199219 L 139.167969 131.199219 C 136.03125 131.199219 133.464844 133.765625 133.464844 136.902344 L 133.464844 145.457031 C 133.464844 148.59375 136.03125 151.160156 139.167969 151.160156 L 150.574219 151.160156 C 153.710938 151.160156 156.277344 148.59375 156.277344 145.457031 Z M 139.167969 145.457031 L 139.167969 136.902344 L 150.574219 136.902344 L 150.574219 145.457031 Z M 139.167969 145.457031 " fill-opacity="1" fill-rule="nonzero"/><path fill="#569da6" d="M 156.277344 165.421875 C 156.277344 162.285156 153.710938 159.71875 150.574219 159.71875 L 139.167969 159.71875 C 136.03125 159.71875 133.464844 162.285156 133.464844 165.421875 L 133.464844 173.976562 C 133.464844 177.113281 136.03125 179.679688 139.167969 179.679688 L 150.574219 179.679688 C 153.710938 179.679688 156.277344 177.113281 156.277344 173.976562 Z M 139.167969 173.976562 L 139.167969 165.421875 L 150.574219 165.421875 L 150.574219 173.976562 Z M 139.167969 173.976562 " fill-opacity="1" fill-rule="nonzero"/><path fill="#569da6" d="M 139.167969 208.195312 L 150.574219 208.195312 C 153.710938 208.195312 156.277344 205.628906 156.277344 202.492188 L 156.277344 193.9375 C 156.277344 190.800781 153.710938 188.234375 150.574219 188.234375 L 139.167969 188.234375 C 136.03125 188.234375 133.464844 190.800781 133.464844 193.9375 L 133.464844 202.492188 C 133.464844 205.628906 136.03125 208.195312 139.167969 208.195312 Z M 139.167969 193.9375 L 150.574219 193.9375 L 150.574219 202.492188 L 139.167969 202.492188 Z M 139.167969 193.9375 " fill-opacity="1" fill-rule="nonzero"/><path fill="#569da6" d="M 161.984375 173.976562 C 161.984375 175.542969 163.265625 176.828125 164.835938 176.828125 L 186.367188 176.828125 L 189.644531 171.125 L 164.835938 171.125 C 163.265625 171.125 161.984375 172.40625 161.984375 173.976562 Z M 161.984375 173.976562 " fill-opacity="1" fill-rule="nonzero"/><path fill="#569da6" d="M 219.589844 142.605469 L 164.835938 142.605469 C 163.265625 142.605469 161.984375 143.890625 161.984375 145.457031 C 161.984375 147.027344 163.265625 148.308594 164.835938 148.308594 L 213.457031 148.308594 Z M 219.589844 142.605469 " fill-opacity="1" fill-rule="nonzero"/><g clip-path="url(#3d120408f9)"><path fill="#569da6" d="M 247.535156 216.753906 C 247.535156 218.320312 246.253906 219.605469 244.683594 219.605469 L 124.910156 219.605469 C 123.339844 219.605469 122.058594 218.320312 122.058594 216.753906 L 122.058594 51.351562 C 122.058594 49.78125 123.339844 48.5 124.910156 48.5 L 244.683594 48.5 C 246.253906 48.5 247.535156 49.78125 247.535156 51.351562 L 247.535156 116.796875 L 252.242188 112.378906 C 252.527344 112.09375 252.8125 111.808594 253.238281 111.664062 L 253.238281 51.351562 C 253.238281 46.644531 249.390625 42.796875 244.683594 42.796875 L 124.910156 42.796875 C 120.203125 42.796875 116.355469 46.644531 116.355469 51.351562 L 116.355469 216.753906 C 116.355469 221.457031 120.203125 225.308594 124.910156 225.308594 L 244.683594 225.308594 C 249.390625 225.308594 253.238281 221.457031 253.238281 216.753906 L 253.238281 161.144531 L 247.535156 166.417969 Z M 247.535156 216.753906 " fill-opacity="1" fill-rule="nonzero"/></g><path fill="#569da6" d="M 273.914062 122.214844 C 273.914062 122.214844 269.78125 117.226562 269.78125 117.226562 C 266.5 113.234375 260.367188 113.089844 256.660156 116.511719 C 256.660156 116.511719 195.777344 172.691406 195.777344 172.691406 C 195.492188 172.835938 195.347656 173.121094 195.207031 173.40625 L 180.234375 199.640625 L 164.835938 199.640625 C 163.265625 199.640625 161.984375 200.925781 161.984375 202.492188 C 161.984375 204.0625 163.265625 205.34375 164.835938 205.34375 L 233.277344 205.34375 C 234.84375 205.34375 236.128906 204.0625 236.128906 202.492188 C 236.128906 200.925781 234.84375 199.640625 233.277344 199.640625 L 195.0625 199.640625 C 195.0625 199.640625 211.175781 192.226562 211.175781 192.226562 C 211.460938 192.085938 211.746094 191.941406 211.886719 191.65625 L 272.773438 135.476562 C 276.765625 132.054688 277.050781 126.066406 273.914062 122.214844 Z M 188.789062 196.21875 L 198.058594 179.820312 L 205.472656 188.664062 Z M 210.320312 185.527344 L 201.480469 175.117188 L 248.390625 131.769531 L 257.230469 142.179688 Z M 269.066406 131.484375 L 261.507812 138.472656 L 252.667969 128.0625 C 252.667969 128.0625 260.367188 120.933594 260.367188 120.933594 C 261.792969 119.648438 264.074219 119.648438 265.359375 121.074219 L 269.496094 126.066406 C 270.777344 127.492188 270.636719 129.917969 269.066406 131.484375 Z M 269.066406 131.484375 " fill-opacity="1" fill-rule="nonzero"/></svg>