<svg xmlns="http://www.w3.org/2000/svg" xmlns:xlink="http://www.w3.org/1999/xlink" width="500" zoomAndPan="magnify" viewBox="0 0 375 374.999991" height="500" preserveAspectRatio="xMidYMid meet" version="1.0"><defs><g/><clipPath id="a80ab2ffca"><path d="M 45.335938 0 L 329.664062 0 L 329.664062 284.324219 L 45.335938 284.324219 Z M 45.335938 0 " clip-rule="nonzero"/></clipPath><clipPath id="43e178bd0c"><path d="M 187.5 0 C 108.984375 0 45.335938 63.648438 45.335938 142.164062 C 45.335938 220.675781 108.984375 284.324219 187.5 284.324219 C 266.015625 284.324219 329.664062 220.675781 329.664062 142.164062 C 329.664062 63.648438 266.015625 0 187.5 0 Z M 187.5 0 " clip-rule="nonzero"/></clipPath><clipPath id="a68b228cf0"><path d="M 45.335938 0 L 329.585938 0 L 329.585938 284.25 L 45.335938 284.25 Z M 45.335938 0 " clip-rule="nonzero"/></clipPath><clipPath id="938afeb864"><path d="M 187.496094 0 C 108.984375 0 45.335938 63.648438 45.335938 142.160156 C 45.335938 220.671875 108.984375 284.320312 187.496094 284.320312 C 266.011719 284.320312 329.65625 220.671875 329.65625 142.160156 C 329.65625 63.648438 266.011719 0 187.496094 0 Z M 187.496094 0 " clip-rule="nonzero"/></clipPath><linearGradient x1="-0.000000290163" gradientTransform="matrix(5.92334, 0, 0, 5.92334, 0.00000171874, -0.000000000000113687)" y1="32" x2="63.98417" gradientUnits="userSpaceOnUse" y2="32" id="5fdf7ab340"><stop stop-opacity="1" stop-color="rgb(65.098572%, 65.098572%, 65.098572%)" offset="0"/><stop stop-opacity="1" stop-color="rgb(65.234375%, 65.234375%, 65.234375%)" offset="0.0078125"/><stop stop-opacity="1" stop-color="rgb(65.507507%, 65.507507%, 65.507507%)" offset="0.015625"/><stop stop-opacity="1" stop-color="rgb(65.78064%, 65.78064%, 65.78064%)" offset="0.0234375"/><stop stop-opacity="1" stop-color="rgb(66.052246%, 66.052246%, 66.052246%)" offset="0.03125"/><stop stop-opacity="1" stop-color="rgb(66.325378%, 66.325378%, 66.325378%)" offset="0.0390625"/><stop stop-opacity="1" stop-color="rgb(66.598511%, 66.598511%, 66.598511%)" offset="0.046875"/><stop stop-opacity="1" stop-color="rgb(66.870117%, 66.870117%, 66.870117%)" offset="0.0546875"/><stop stop-opacity="1" stop-color="rgb(67.14325%, 67.14325%, 67.14325%)" offset="0.0625"/><stop stop-opacity="1" stop-color="rgb(67.416382%, 67.416382%, 67.416382%)" offset="0.0703125"/><stop stop-opacity="1" stop-color="rgb(67.687988%, 67.687988%, 67.687988%)" offset="0.078125"/><stop stop-opacity="1" stop-color="rgb(67.961121%, 67.961121%, 67.961121%)" offset="0.0859375"/><stop stop-opacity="1" stop-color="rgb(68.234253%, 68.234253%, 68.234253%)" offset="0.09375"/><stop stop-opacity="1" stop-color="rgb(68.505859%, 68.505859%, 68.505859%)" offset="0.101562"/><stop stop-opacity="1" stop-color="rgb(68.778992%, 68.778992%, 68.778992%)" offset="0.109375"/><stop stop-opacity="1" stop-color="rgb(69.050598%, 69.050598%, 69.050598%)" offset="0.117188"/><stop stop-opacity="1" stop-color="rgb(69.32373%, 69.32373%, 69.32373%)" offset="0.125"/><stop stop-opacity="1" stop-color="rgb(69.596863%, 69.596863%, 69.596863%)" offset="0.132812"/><stop stop-opacity="1" stop-color="rgb(69.868469%, 69.868469%, 69.868469%)" offset="0.140625"/><stop stop-opacity="1" stop-color="rgb(70.141602%, 70.141602%, 70.141602%)" offset="0.148438"/><stop stop-opacity="1" stop-color="rgb(70.414734%, 70.414734%, 70.414734%)" offset="0.15625"/><stop stop-opacity="1" stop-color="rgb(70.68634%, 70.68634%, 70.68634%)" offset="0.164062"/><stop stop-opacity="1" stop-color="rgb(70.959473%, 70.959473%, 70.959473%)" offset="0.171875"/><stop stop-opacity="1" stop-color="rgb(71.232605%, 71.232605%, 71.232605%)" offset="0.179688"/><stop stop-opacity="1" stop-color="rgb(71.504211%, 71.504211%, 71.504211%)" offset="0.1875"/><stop stop-opacity="1" stop-color="rgb(71.777344%, 71.777344%, 71.777344%)" offset="0.195312"/><stop stop-opacity="1" stop-color="rgb(72.050476%, 72.050476%, 72.050476%)" offset="0.203125"/><stop stop-opacity="1" stop-color="rgb(72.322083%, 72.322083%, 72.322083%)" offset="0.210938"/><stop stop-opacity="1" stop-color="rgb(72.595215%, 72.595215%, 72.595215%)" offset="0.21875"/><stop stop-opacity="1" stop-color="rgb(72.866821%, 72.866821%, 72.866821%)" offset="0.226562"/><stop stop-opacity="1" stop-color="rgb(73.139954%, 73.139954%, 73.139954%)" offset="0.234375"/><stop stop-opacity="1" stop-color="rgb(73.413086%, 73.413086%, 73.413086%)" offset="0.242188"/><stop stop-opacity="1" stop-color="rgb(73.684692%, 73.684692%, 73.684692%)" offset="0.25"/><stop stop-opacity="1" stop-color="rgb(73.957825%, 73.957825%, 73.957825%)" offset="0.257812"/><stop stop-opacity="1" stop-color="rgb(74.230957%, 74.230957%, 74.230957%)" offset="0.265625"/><stop stop-opacity="1" stop-color="rgb(74.502563%, 74.502563%, 74.502563%)" offset="0.273438"/><stop stop-opacity="1" stop-color="rgb(74.775696%, 74.775696%, 74.775696%)" offset="0.28125"/><stop stop-opacity="1" stop-color="rgb(75.048828%, 75.048828%, 75.048828%)" offset="0.289062"/><stop stop-opacity="1" stop-color="rgb(75.320435%, 75.320435%, 75.320435%)" offset="0.296875"/><stop stop-opacity="1" stop-color="rgb(75.593567%, 75.593567%, 75.593567%)" offset="0.304688"/><stop stop-opacity="1" stop-color="rgb(75.866699%, 75.866699%, 75.866699%)" offset="0.3125"/><stop stop-opacity="1" stop-color="rgb(76.138306%, 76.138306%, 76.138306%)" offset="0.320312"/><stop stop-opacity="1" stop-color="rgb(76.411438%, 76.411438%, 76.411438%)" offset="0.328125"/><stop stop-opacity="1" stop-color="rgb(76.683044%, 76.683044%, 76.683044%)" offset="0.335938"/><stop stop-opacity="1" stop-color="rgb(76.956177%, 76.956177%, 76.956177%)" offset="0.34375"/><stop stop-opacity="1" stop-color="rgb(77.229309%, 77.229309%, 77.229309%)" offset="0.351562"/><stop stop-opacity="1" stop-color="rgb(77.500916%, 77.500916%, 77.500916%)" offset="0.359375"/><stop stop-opacity="1" stop-color="rgb(77.774048%, 77.774048%, 77.774048%)" offset="0.367188"/><stop stop-opacity="1" stop-color="rgb(78.04718%, 78.04718%, 78.04718%)" offset="0.375"/><stop stop-opacity="1" stop-color="rgb(78.318787%, 78.318787%, 78.318787%)" offset="0.382812"/><stop stop-opacity="1" stop-color="rgb(78.591919%, 78.591919%, 78.591919%)" offset="0.390625"/><stop stop-opacity="1" stop-color="rgb(78.865051%, 78.865051%, 78.865051%)" offset="0.398438"/><stop stop-opacity="1" stop-color="rgb(79.136658%, 79.136658%, 79.136658%)" offset="0.40625"/><stop stop-opacity="1" stop-color="rgb(79.40979%, 79.40979%, 79.40979%)" offset="0.414062"/><stop stop-opacity="1" stop-color="rgb(79.682922%, 79.682922%, 79.682922%)" offset="0.421875"/><stop stop-opacity="1" stop-color="rgb(79.954529%, 79.954529%, 79.954529%)" offset="0.429688"/><stop stop-opacity="1" stop-color="rgb(80.227661%, 80.227661%, 80.227661%)" offset="0.4375"/><stop stop-opacity="1" stop-color="rgb(80.499268%, 80.499268%, 80.499268%)" offset="0.445312"/><stop stop-opacity="1" stop-color="rgb(80.7724%, 80.7724%, 80.7724%)" offset="0.453125"/><stop stop-opacity="1" stop-color="rgb(81.045532%, 81.045532%, 81.045532%)" offset="0.460938"/><stop stop-opacity="1" stop-color="rgb(81.317139%, 81.317139%, 81.317139%)" offset="0.46875"/><stop stop-opacity="1" stop-color="rgb(81.590271%, 81.590271%, 81.590271%)" offset="0.476562"/><stop stop-opacity="1" stop-color="rgb(81.863403%, 81.863403%, 81.863403%)" offset="0.484375"/><stop stop-opacity="1" stop-color="rgb(82.13501%, 82.13501%, 82.13501%)" offset="0.492188"/><stop stop-opacity="1" stop-color="rgb(82.408142%, 82.408142%, 82.408142%)" offset="0.5"/><stop stop-opacity="1" stop-color="rgb(82.681274%, 82.681274%, 82.681274%)" offset="0.507812"/><stop stop-opacity="1" stop-color="rgb(82.952881%, 82.952881%, 82.952881%)" offset="0.515625"/><stop stop-opacity="1" stop-color="rgb(83.226013%, 83.226013%, 83.226013%)" offset="0.523437"/><stop stop-opacity="1" stop-color="rgb(83.499146%, 83.499146%, 83.499146%)" offset="0.53125"/><stop stop-opacity="1" stop-color="rgb(83.770752%, 83.770752%, 83.770752%)" offset="0.539062"/><stop stop-opacity="1" stop-color="rgb(84.043884%, 84.043884%, 84.043884%)" offset="0.546875"/><stop stop-opacity="1" stop-color="rgb(84.317017%, 84.317017%, 84.317017%)" offset="0.554688"/><stop stop-opacity="1" stop-color="rgb(84.588623%, 84.588623%, 84.588623%)" offset="0.5625"/><stop stop-opacity="1" stop-color="rgb(84.861755%, 84.861755%, 84.861755%)" offset="0.570312"/><stop stop-opacity="1" stop-color="rgb(85.133362%, 85.133362%, 85.133362%)" offset="0.578125"/><stop stop-opacity="1" stop-color="rgb(85.406494%, 85.406494%, 85.406494%)" offset="0.585938"/><stop stop-opacity="1" stop-color="rgb(85.679626%, 85.679626%, 85.679626%)" offset="0.59375"/><stop stop-opacity="1" stop-color="rgb(85.951233%, 85.951233%, 85.951233%)" offset="0.601562"/><stop stop-opacity="1" stop-color="rgb(86.224365%, 86.224365%, 86.224365%)" offset="0.609375"/><stop stop-opacity="1" stop-color="rgb(86.497498%, 86.497498%, 86.497498%)" offset="0.617187"/><stop stop-opacity="1" stop-color="rgb(86.769104%, 86.769104%, 86.769104%)" offset="0.625"/><stop stop-opacity="1" stop-color="rgb(87.042236%, 87.042236%, 87.042236%)" offset="0.632812"/><stop stop-opacity="1" stop-color="rgb(87.315369%, 87.315369%, 87.315369%)" offset="0.640625"/><stop stop-opacity="1" stop-color="rgb(87.586975%, 87.586975%, 87.586975%)" offset="0.648438"/><stop stop-opacity="1" stop-color="rgb(87.860107%, 87.860107%, 87.860107%)" offset="0.65625"/><stop stop-opacity="1" stop-color="rgb(88.13324%, 88.13324%, 88.13324%)" offset="0.664062"/><stop stop-opacity="1" stop-color="rgb(88.404846%, 88.404846%, 88.404846%)" offset="0.671875"/><stop stop-opacity="1" stop-color="rgb(88.677979%, 88.677979%, 88.677979%)" offset="0.679688"/><stop stop-opacity="1" stop-color="rgb(88.949585%, 88.949585%, 88.949585%)" offset="0.6875"/><stop stop-opacity="1" stop-color="rgb(89.222717%, 89.222717%, 89.222717%)" offset="0.695313"/><stop stop-opacity="1" stop-color="rgb(89.49585%, 89.49585%, 89.49585%)" offset="0.703125"/><stop stop-opacity="1" stop-color="rgb(89.767456%, 89.767456%, 89.767456%)" offset="0.710937"/><stop stop-opacity="1" stop-color="rgb(90.040588%, 90.040588%, 90.040588%)" offset="0.71875"/><stop stop-opacity="1" stop-color="rgb(90.313721%, 90.313721%, 90.313721%)" offset="0.726562"/><stop stop-opacity="1" stop-color="rgb(90.585327%, 90.585327%, 90.585327%)" offset="0.734375"/><stop stop-opacity="1" stop-color="rgb(90.858459%, 90.858459%, 90.858459%)" offset="0.742188"/><stop stop-opacity="1" stop-color="rgb(91.131592%, 91.131592%, 91.131592%)" offset="0.75"/><stop stop-opacity="1" stop-color="rgb(91.403198%, 91.403198%, 91.403198%)" offset="0.757812"/><stop stop-opacity="1" stop-color="rgb(91.676331%, 91.676331%, 91.676331%)" offset="0.765625"/><stop stop-opacity="1" stop-color="rgb(91.949463%, 91.949463%, 91.949463%)" offset="0.773438"/><stop stop-opacity="1" stop-color="rgb(92.221069%, 92.221069%, 92.221069%)" offset="0.78125"/><stop stop-opacity="1" stop-color="rgb(92.494202%, 92.494202%, 92.494202%)" offset="0.789063"/><stop stop-opacity="1" stop-color="rgb(92.765808%, 92.765808%, 92.765808%)" offset="0.796875"/><stop stop-opacity="1" stop-color="rgb(93.03894%, 93.03894%, 93.03894%)" offset="0.804687"/><stop stop-opacity="1" stop-color="rgb(93.312073%, 93.312073%, 93.312073%)" offset="0.8125"/><stop stop-opacity="1" stop-color="rgb(93.583679%, 93.583679%, 93.583679%)" offset="0.820312"/><stop stop-opacity="1" stop-color="rgb(93.856812%, 93.856812%, 93.856812%)" offset="0.828125"/><stop stop-opacity="1" stop-color="rgb(94.129944%, 94.129944%, 94.129944%)" offset="0.835938"/><stop stop-opacity="1" stop-color="rgb(94.40155%, 94.40155%, 94.40155%)" offset="0.84375"/><stop stop-opacity="1" stop-color="rgb(94.674683%, 94.674683%, 94.674683%)" offset="0.851562"/><stop stop-opacity="1" stop-color="rgb(94.947815%, 94.947815%, 94.947815%)" offset="0.859375"/><stop stop-opacity="1" stop-color="rgb(95.219421%, 95.219421%, 95.219421%)" offset="0.867188"/><stop stop-opacity="1" stop-color="rgb(95.492554%, 95.492554%, 95.492554%)" offset="0.875"/><stop stop-opacity="1" stop-color="rgb(95.765686%, 95.765686%, 95.765686%)" offset="0.882813"/><stop stop-opacity="1" stop-color="rgb(96.037292%, 96.037292%, 96.037292%)" offset="0.890625"/><stop stop-opacity="1" stop-color="rgb(96.310425%, 96.310425%, 96.310425%)" offset="0.898438"/><stop stop-opacity="1" stop-color="rgb(96.582031%, 96.582031%, 96.582031%)" offset="0.90625"/><stop stop-opacity="1" stop-color="rgb(96.855164%, 96.855164%, 96.855164%)" offset="0.914062"/><stop stop-opacity="1" stop-color="rgb(97.128296%, 97.128296%, 97.128296%)" offset="0.921875"/><stop stop-opacity="1" stop-color="rgb(97.399902%, 97.399902%, 97.399902%)" offset="0.929688"/><stop stop-opacity="1" stop-color="rgb(97.673035%, 97.673035%, 97.673035%)" offset="0.9375"/><stop stop-opacity="1" stop-color="rgb(97.946167%, 97.946167%, 97.946167%)" offset="0.945312"/><stop stop-opacity="1" stop-color="rgb(98.217773%, 98.217773%, 98.217773%)" offset="0.953125"/><stop stop-opacity="1" stop-color="rgb(98.490906%, 98.490906%, 98.490906%)" offset="0.960938"/><stop stop-opacity="1" stop-color="rgb(98.764038%, 98.764038%, 98.764038%)" offset="0.96875"/><stop stop-opacity="1" stop-color="rgb(99.035645%, 99.035645%, 99.035645%)" offset="0.976563"/><stop stop-opacity="1" stop-color="rgb(99.308777%, 99.308777%, 99.308777%)" offset="0.984375"/><stop stop-opacity="1" stop-color="rgb(99.581909%, 99.581909%, 99.581909%)" offset="0.992188"/><stop stop-opacity="1" stop-color="rgb(99.853516%, 99.853516%, 99.853516%)" offset="1"/></linearGradient><clipPath id="30cde97dc2"><path d="M 214 127 L 300.480469 127 L 300.480469 207 L 214 207 Z M 214 127 " clip-rule="nonzero"/></clipPath><clipPath id="6f9144aca3"><path d="M 228 62.679688 L 283 62.679688 L 283 118 L 228 118 Z M 228 62.679688 " clip-rule="nonzero"/></clipPath><clipPath id="2fb3053da7"><path d="M 74.730469 128 L 161 128 L 161 207 L 74.730469 207 Z M 74.730469 128 " clip-rule="nonzero"/></clipPath><clipPath id="c83cb79c39"><path d="M 92 62.679688 L 147 62.679688 L 147 118 L 92 118 Z M 92 62.679688 " clip-rule="nonzero"/></clipPath></defs><g clip-path="url(#a80ab2ffca)"><g clip-path="url(#43e178bd0c)"><path fill="#dffff0" d="M 45.335938 0 L 329.664062 0 L 329.664062 284.324219 L 45.335938 284.324219 Z M 45.335938 0 " fill-opacity="1" fill-rule="nonzero"/></g></g><g clip-path="url(#a68b228cf0)"><g clip-path="url(#938afeb864)"><path stroke-linecap="butt" transform="matrix(0.75, 0, 0, 0.75, 45.337259, 0.000000000000085265)" fill="none" stroke-linejoin="miter" d="M 189.545125 -0.000000000000113687 C 84.862827 -0.000000000000113687 -0.00176216 84.864589 -0.00176216 189.546887 C -0.00176216 294.229186 84.862827 379.093775 189.545125 379.093775 C 294.232632 379.093775 379.092013 294.229186 379.092013 189.546887 C 379.092013 84.864589 294.232632 -0.000000000000113687 189.545125 -0.000000000000113687 Z M 189.545125 -0.000000000000113687 " stroke="url(#5fdf7ab340)" stroke-width="10" stroke-miterlimit="4"/></g></g><g fill="#ffffff" fill-opacity="1"><g transform="translate(70.571266, 352.059868)"><g><path d="M 21.734375 0 L 21.734375 -25.84375 C 21.734375 -28.375 21.300781 -30.234375 20.4375 -31.421875 C 19.582031 -32.617188 17.910156 -33.21875 15.421875 -33.21875 L 3.578125 -33.21875 L 3.578125 -37.84375 L 16.796875 -37.84375 C 20.242188 -37.84375 22.789062 -36.957031 24.4375 -35.1875 C 26.082031 -33.414062 26.90625 -30.453125 26.90625 -26.296875 L 26.90625 0 Z M 4.1875 0 L 4.1875 -22.046875 L 9.203125 -22.046875 L 9.203125 0 Z M 4.1875 0 "/></g></g></g><g fill="#ffffff" fill-opacity="1"><g transform="translate(101.276958, 352.059868)"><g><path d="M 15.890625 0 L 15.890625 -25.84375 C 15.890625 -28.375 15.457031 -30.234375 14.59375 -31.421875 C 13.726562 -32.617188 12.054688 -33.21875 9.578125 -33.21875 L 1.0625 -33.21875 L 1.0625 -37.84375 L 10.9375 -37.84375 C 14.382812 -37.84375 16.929688 -36.957031 18.578125 -35.1875 C 20.222656 -33.414062 21.046875 -30.453125 21.046875 -26.296875 L 21.046875 0 Z M 15.890625 0 "/></g></g></g><g fill="#ffffff" fill-opacity="1"><g transform="translate(126.130312, 352.059868)"><g><path d="M 33.515625 -37.84375 C 33.617188 -37.1875 33.691406 -36.3125 33.734375 -35.21875 C 33.785156 -34.132812 33.820312 -33.046875 33.84375 -31.953125 C 33.875 -30.867188 33.890625 -29.972656 33.890625 -29.265625 C 33.890625 -23.128906 32.890625 -17.816406 30.890625 -13.328125 C 28.890625 -8.847656 25.988281 -5.414062 22.1875 -3.03125 C 18.382812 -0.65625 13.800781 0.476562 8.4375 0.375 L 6.15625 0.078125 L 2.734375 -37.84375 L 7.90625 -37.84375 L 9.421875 -18.765625 C 11.953125 -19.117188 13.6875 -20.285156 14.625 -22.265625 C 15.5625 -24.242188 16.03125 -27.003906 16.03125 -30.546875 C 16.03125 -31.160156 16.003906 -31.921875 15.953125 -32.828125 C 15.910156 -33.742188 15.863281 -34.671875 15.8125 -35.609375 C 15.757812 -36.546875 15.707031 -37.289062 15.65625 -37.84375 L 20.59375 -37.84375 C 20.695312 -36.726562 20.785156 -35.585938 20.859375 -34.421875 C 20.929688 -33.265625 20.96875 -32.148438 20.96875 -31.078125 C 20.96875 -25.910156 20.066406 -21.984375 18.265625 -19.296875 C 16.472656 -16.617188 13.628906 -15.023438 9.734375 -14.515625 L 10.5625 -4.109375 C 16.488281 -4.554688 21 -7.070312 24.09375 -11.65625 C 27.1875 -16.25 28.734375 -22.445312 28.734375 -30.25 C 28.734375 -31.414062 28.679688 -32.679688 28.578125 -34.046875 C 28.472656 -35.410156 28.347656 -36.675781 28.203125 -37.84375 Z M 33.515625 -37.84375 "/></g></g></g><g fill="#ffffff" fill-opacity="1"><g transform="translate(162.232288, 352.059868)"><g><path d="M 2.125 0 L 2.125 -4.640625 L 16.109375 -4.640625 C 16.210938 -6.203125 16.300781 -7.984375 16.375 -9.984375 C 16.445312 -11.992188 16.507812 -14.023438 16.5625 -16.078125 C 16.613281 -18.128906 16.640625 -19.988281 16.640625 -21.65625 C 16.640625 -24.75 16.4375 -27.128906 16.03125 -28.796875 C 15.625 -30.472656 14.890625 -31.628906 13.828125 -32.265625 C 12.765625 -32.898438 11.195312 -33.21875 9.125 -33.21875 L 2.890625 -33.21875 L 2.890625 -37.84375 L 10.03125 -37.84375 C 13.019531 -37.84375 15.375 -37.382812 17.09375 -36.46875 C 18.820312 -35.5625 20.039062 -34.03125 20.75 -31.875 C 21.457031 -29.726562 21.8125 -26.726562 21.8125 -22.875 C 21.8125 -20.75 21.757812 -18.328125 21.65625 -15.609375 C 21.5625 -12.898438 21.421875 -10.175781 21.234375 -7.4375 C 21.054688 -4.707031 20.84375 -2.226562 20.59375 0 Z M 2.125 0 "/></g></g></g><g fill="#ffffff" fill-opacity="1"><g transform="translate(187.389679, 352.059868)"><g><path d="M 21.734375 0 L 21.734375 -25.84375 C 21.734375 -28.375 21.300781 -30.234375 20.4375 -31.421875 C 19.582031 -32.617188 17.910156 -33.21875 15.421875 -33.21875 L 3.578125 -33.21875 L 3.578125 -37.84375 L 16.796875 -37.84375 C 20.242188 -37.84375 22.789062 -36.957031 24.4375 -35.1875 C 26.082031 -33.414062 26.90625 -30.453125 26.90625 -26.296875 L 26.90625 0 Z M 4.1875 0 L 4.1875 -22.046875 L 9.203125 -22.046875 L 9.203125 0 Z M 4.1875 0 "/></g></g></g><g fill="#ffffff" fill-opacity="1"><g transform="translate(218.095371, 352.059868)"><g/></g></g><g fill="#ffffff" fill-opacity="1"><g transform="translate(230.104022, 352.059868)"><g><path d="M 23.25 -37.84375 L 23.640625 -37.390625 L 12.765625 0 L 7.59375 0 L 17.25 -33.21875 L 1.515625 -33.21875 L 1.59375 -48.484375 L 6.765625 -49.09375 L 6.6875 -37.84375 Z M 23.25 -37.84375 "/></g></g></g><g fill="#ffffff" fill-opacity="1"><g transform="translate(254.729365, 352.059868)"><g><path d="M 1.90625 0.609375 L 1.90625 -4.859375 C 3.875 -5.523438 5.769531 -6.4375 7.59375 -7.59375 C 9.425781 -8.757812 11.078125 -10.050781 12.546875 -11.46875 L 12.3125 -25.609375 C 12.207031 -28.703125 11.75 -30.78125 10.9375 -31.84375 C 10.132812 -32.90625 8.742188 -33.4375 6.765625 -33.4375 C 5.753906 -33.4375 4.585938 -33.363281 3.265625 -33.21875 L 3.265625 -37.765625 C 4.179688 -37.867188 5.039062 -37.945312 5.84375 -38 C 6.65625 -38.050781 7.414062 -38.078125 8.125 -38.078125 C 11.570312 -38.078125 13.941406 -37.265625 15.234375 -35.640625 C 16.523438 -34.023438 17.222656 -31.113281 17.328125 -26.90625 L 17.625 -9.953125 L 19.609375 0 L 14.59375 0 L 13.296875 -6.390625 C 11.523438 -4.660156 9.738281 -3.265625 7.9375 -2.203125 C 6.144531 -1.140625 4.132812 -0.203125 1.90625 0.609375 Z M 1.90625 0.609375 "/></g></g></g><g fill="#ffffff" fill-opacity="1"><g transform="translate(276.618569, 352.059868)"><g><path d="M 15.890625 -37.3125 C 20.191406 -37.3125 23.34375 -36.410156 25.34375 -34.609375 C 27.34375 -32.816406 28.34375 -29.585938 28.34375 -24.921875 C 28.34375 -21.128906 27.707031 -17.582031 26.4375 -14.28125 C 25.175781 -10.988281 23.148438 -8.078125 20.359375 -5.546875 C 17.578125 -3.015625 13.878906 -0.960938 9.265625 0.609375 L 5.703125 0.15625 L 2.359375 -39.671875 L 7.453125 -40.515625 L 7.671875 -37.3125 Z M 10.1875 -5.171875 C 14.84375 -7.046875 18.160156 -9.71875 20.140625 -13.1875 C 22.117188 -16.65625 23.109375 -20.46875 23.109375 -24.625 C 23.109375 -27.507812 22.523438 -29.582031 21.359375 -30.84375 C 20.191406 -32.113281 18.265625 -32.75 15.578125 -32.75 L 8.0625 -32.75 Z M 10.1875 -5.171875 "/></g></g></g><path fill="#569da6" d="M 199.222656 149.792969 L 175.769531 149.792969 C 157.453125 149.792969 142.617188 164.632812 142.617188 182.945312 L 142.617188 220.699219 C 171.574219 231.253906 203.371094 231.253906 232.332031 220.699219 L 232.332031 182.945312 C 232.375 164.632812 217.535156 149.792969 199.222656 149.792969 Z M 199.222656 149.792969 " fill-opacity="1" fill-rule="nonzero"/><path fill="#569da6" d="M 214.695312 111.722656 C 214.695312 112.613281 214.648438 113.5 214.5625 114.386719 C 214.476562 115.273438 214.34375 116.15625 214.171875 117.027344 C 213.996094 117.902344 213.78125 118.765625 213.523438 119.617188 C 213.265625 120.46875 212.964844 121.308594 212.625 122.132812 C 212.28125 122.953125 211.902344 123.757812 211.480469 124.542969 C 211.0625 125.328125 210.605469 126.09375 210.109375 126.832031 C 209.613281 127.574219 209.085938 128.289062 208.519531 128.976562 C 207.953125 129.664062 207.359375 130.324219 206.726562 130.953125 C 206.097656 131.585938 205.4375 132.183594 204.75 132.746094 C 204.0625 133.3125 203.347656 133.84375 202.605469 134.335938 C 201.867188 134.832031 201.101562 135.289062 200.316406 135.710938 C 199.53125 136.128906 198.726562 136.511719 197.902344 136.851562 C 197.082031 137.191406 196.242188 137.492188 195.390625 137.75 C 194.539062 138.007812 193.675781 138.226562 192.800781 138.398438 C 191.929688 138.574219 191.046875 138.703125 190.160156 138.789062 C 189.273438 138.878906 188.386719 138.921875 187.496094 138.921875 C 186.605469 138.921875 185.714844 138.878906 184.828125 138.789062 C 183.941406 138.703125 183.0625 138.574219 182.1875 138.398438 C 181.316406 138.226562 180.453125 138.007812 179.601562 137.75 C 178.746094 137.492188 177.910156 137.191406 177.085938 136.851562 C 176.265625 136.511719 175.460938 136.128906 174.675781 135.710938 C 173.886719 135.289062 173.125 134.832031 172.382812 134.335938 C 171.644531 133.84375 170.929688 133.3125 170.242188 132.746094 C 169.550781 132.183594 168.894531 131.585938 168.261719 130.953125 C 167.632812 130.324219 167.035156 129.664062 166.46875 128.976562 C 165.90625 128.289062 165.375 127.574219 164.878906 126.832031 C 164.386719 126.09375 163.929688 125.328125 163.507812 124.542969 C 163.089844 123.757812 162.707031 122.953125 162.367188 122.132812 C 162.027344 121.308594 161.726562 120.46875 161.46875 119.617188 C 161.210938 118.765625 160.992188 117.902344 160.820312 117.027344 C 160.644531 116.15625 160.515625 115.273438 160.425781 114.386719 C 160.339844 113.5 160.296875 112.613281 160.296875 111.722656 C 160.296875 110.832031 160.339844 109.941406 160.425781 109.054688 C 160.515625 108.171875 160.644531 107.289062 160.820312 106.417969 C 160.992188 105.542969 161.210938 104.679688 161.46875 103.828125 C 161.726562 102.976562 162.027344 102.136719 162.367188 101.3125 C 162.707031 100.492188 163.089844 99.6875 163.507812 98.902344 C 163.929688 98.117188 164.386719 97.351562 164.878906 96.613281 C 165.375 95.871094 165.90625 95.15625 166.46875 94.46875 C 167.035156 93.78125 167.632812 93.121094 168.261719 92.488281 C 168.894531 91.859375 169.550781 91.261719 170.242188 90.699219 C 170.929688 90.132812 171.644531 89.601562 172.382812 89.109375 C 173.125 88.613281 173.886719 88.15625 174.675781 87.734375 C 175.460938 87.316406 176.265625 86.933594 177.085938 86.59375 C 177.910156 86.253906 178.746094 85.953125 179.601562 85.695312 C 180.453125 85.4375 181.316406 85.21875 182.1875 85.046875 C 183.0625 84.871094 183.941406 84.742188 184.828125 84.65625 C 185.714844 84.566406 186.605469 84.523438 187.496094 84.523438 C 188.386719 84.523438 189.273438 84.566406 190.160156 84.65625 C 191.046875 84.742188 191.929688 84.871094 192.800781 85.046875 C 193.675781 85.21875 194.539062 85.4375 195.390625 85.695312 C 196.242188 85.953125 197.082031 86.253906 197.902344 86.59375 C 198.726562 86.933594 199.53125 87.316406 200.316406 87.734375 C 201.101562 88.15625 201.867188 88.613281 202.605469 89.109375 C 203.347656 89.601562 204.0625 90.132812 204.75 90.699219 C 205.4375 91.261719 206.097656 91.859375 206.726562 92.488281 C 207.359375 93.121094 207.953125 93.78125 208.519531 94.46875 C 209.085938 95.15625 209.613281 95.871094 210.109375 96.613281 C 210.605469 97.351562 211.0625 98.117188 211.480469 98.902344 C 211.902344 99.6875 212.28125 100.492188 212.625 101.3125 C 212.964844 102.136719 213.265625 102.976562 213.523438 103.828125 C 213.78125 104.679688 213.996094 105.542969 214.171875 106.417969 C 214.34375 107.289062 214.476562 108.171875 214.5625 109.054688 C 214.648438 109.941406 214.695312 110.832031 214.695312 111.722656 Z M 214.695312 111.722656 " fill-opacity="1" fill-rule="nonzero"/><g clip-path="url(#30cde97dc2)"><path fill="#569da6" d="M 267.105469 127.960938 L 243.652344 127.960938 C 230.75 127.960938 219.566406 135.359375 214.109375 146.136719 C 228.632812 152.046875 238.914062 166.300781 238.914062 182.898438 L 238.914062 205.722656 C 259.484375 208.339844 280.546875 206.039062 300.257812 198.867188 L 300.257812 161.113281 C 300.257812 142.800781 285.417969 127.960938 267.105469 127.960938 Z M 267.105469 127.960938 " fill-opacity="1" fill-rule="nonzero"/></g><g clip-path="url(#6f9144aca3)"><path fill="#569da6" d="M 282.578125 89.890625 C 282.578125 90.78125 282.535156 91.671875 282.445312 92.558594 C 282.359375 93.445312 282.230469 94.324219 282.054688 95.199219 C 281.882812 96.070312 281.664062 96.933594 281.40625 97.785156 C 281.148438 98.640625 280.847656 99.476562 280.507812 100.300781 C 280.167969 101.121094 279.785156 101.925781 279.367188 102.710938 C 278.945312 103.5 278.488281 104.261719 277.992188 105.003906 C 277.5 105.742188 276.96875 106.457031 276.402344 107.144531 C 275.839844 107.835938 275.242188 108.492188 274.613281 109.125 C 273.980469 109.753906 273.320312 110.351562 272.632812 110.917969 C 271.945312 111.480469 271.230469 112.011719 270.488281 112.507812 C 269.75 113 268.984375 113.457031 268.199219 113.878906 C 267.414062 114.296875 266.609375 114.679688 265.789062 115.019531 C 264.964844 115.359375 264.125 115.660156 263.273438 115.917969 C 262.421875 116.175781 261.558594 116.394531 260.683594 116.566406 C 259.8125 116.742188 258.929688 116.871094 258.046875 116.960938 C 257.160156 117.046875 256.269531 117.089844 255.378906 117.089844 C 254.488281 117.089844 253.601562 117.046875 252.714844 116.960938 C 251.828125 116.871094 250.945312 116.742188 250.074219 116.566406 C 249.199219 116.394531 248.335938 116.175781 247.484375 115.917969 C 246.632812 115.660156 245.792969 115.359375 244.96875 115.019531 C 244.148438 114.679688 243.34375 114.296875 242.558594 113.878906 C 241.773438 113.457031 241.007812 113 240.269531 112.507812 C 239.527344 112.011719 238.8125 111.480469 238.125 110.917969 C 237.4375 110.351562 236.777344 109.753906 236.148438 109.125 C 235.515625 108.492188 234.917969 107.835938 234.355469 107.144531 C 233.789062 106.457031 233.257812 105.742188 232.765625 105.003906 C 232.269531 104.261719 231.8125 103.5 231.390625 102.710938 C 230.972656 101.925781 230.589844 101.121094 230.25 100.300781 C 229.910156 99.476562 229.609375 98.640625 229.351562 97.785156 C 229.09375 96.933594 228.875 96.070312 228.703125 95.199219 C 228.527344 94.324219 228.398438 93.445312 228.3125 92.558594 C 228.222656 91.671875 228.179688 90.78125 228.179688 89.890625 C 228.179688 89 228.222656 88.113281 228.3125 87.226562 C 228.398438 86.339844 228.527344 85.457031 228.703125 84.585938 C 228.875 83.710938 229.09375 82.847656 229.351562 81.996094 C 229.609375 81.144531 229.910156 80.304688 230.25 79.484375 C 230.589844 78.660156 230.972656 77.855469 231.390625 77.070312 C 231.8125 76.285156 232.269531 75.519531 232.765625 74.78125 C 233.257812 74.039062 233.789062 73.324219 234.355469 72.636719 C 234.917969 71.949219 235.515625 71.289062 236.148438 70.660156 C 236.777344 70.027344 237.4375 69.433594 238.125 68.867188 C 238.8125 68.300781 239.527344 67.773438 240.269531 67.277344 C 241.007812 66.78125 241.773438 66.324219 242.558594 65.90625 C 243.34375 65.484375 244.148438 65.105469 244.96875 64.761719 C 245.792969 64.421875 246.632812 64.121094 247.484375 63.863281 C 248.335938 63.605469 249.199219 63.390625 250.074219 63.214844 C 250.945312 63.042969 251.828125 62.910156 252.714844 62.824219 C 253.601562 62.738281 254.488281 62.691406 255.378906 62.691406 C 256.269531 62.691406 257.160156 62.738281 258.046875 62.824219 C 258.929688 62.910156 259.8125 63.042969 260.683594 63.214844 C 261.558594 63.390625 262.421875 63.605469 263.273438 63.863281 C 264.125 64.121094 264.964844 64.421875 265.789062 64.761719 C 266.609375 65.105469 267.414062 65.484375 268.199219 65.90625 C 268.984375 66.324219 269.75 66.78125 270.488281 67.277344 C 271.230469 67.773438 271.945312 68.300781 272.632812 68.867188 C 273.320312 69.433594 273.980469 70.027344 274.613281 70.660156 C 275.242188 71.289062 275.839844 71.949219 276.402344 72.636719 C 276.96875 73.324219 277.5 74.039062 277.992188 74.78125 C 278.488281 75.519531 278.945312 76.285156 279.367188 77.070312 C 279.785156 77.855469 280.167969 78.660156 280.507812 79.484375 C 280.847656 80.304688 281.148438 81.144531 281.40625 81.996094 C 281.664062 82.847656 281.882812 83.710938 282.054688 84.585938 C 282.230469 85.457031 282.359375 86.339844 282.445312 87.226562 C 282.535156 88.113281 282.578125 89 282.578125 89.890625 Z M 282.578125 89.890625 " fill-opacity="1" fill-rule="nonzero"/></g><g clip-path="url(#2fb3053da7)"><path fill="#569da6" d="M 160.882812 146.183594 C 155.425781 135.402344 144.238281 128.003906 131.339844 128.003906 L 107.882812 128.003906 C 89.570312 127.960938 74.730469 142.800781 74.730469 161.113281 L 74.730469 198.867188 C 94.488281 206.082031 115.507812 208.339844 136.074219 205.722656 L 136.074219 182.898438 C 136.074219 166.300781 146.359375 152.046875 160.882812 146.183594 Z M 160.882812 146.183594 " fill-opacity="1" fill-rule="nonzero"/></g><g clip-path="url(#c83cb79c39)"><path fill="#569da6" d="M 146.808594 89.890625 C 146.808594 90.78125 146.765625 91.671875 146.679688 92.558594 C 146.59375 93.445312 146.460938 94.324219 146.289062 95.199219 C 146.113281 96.070312 145.898438 96.933594 145.640625 97.785156 C 145.378906 98.640625 145.082031 99.476562 144.738281 100.300781 C 144.398438 101.121094 144.019531 101.925781 143.597656 102.710938 C 143.179688 103.5 142.722656 104.261719 142.226562 105.003906 C 141.730469 105.742188 141.203125 106.457031 140.636719 107.144531 C 140.070312 107.835938 139.472656 108.492188 138.84375 109.125 C 138.214844 109.753906 137.554688 110.351562 136.867188 110.917969 C 136.175781 111.480469 135.464844 112.011719 134.722656 112.507812 C 133.980469 113 133.21875 113.457031 132.433594 113.878906 C 131.648438 114.296875 130.84375 114.679688 130.019531 115.019531 C 129.195312 115.359375 128.359375 115.660156 127.507812 115.917969 C 126.65625 116.175781 125.792969 116.394531 124.917969 116.566406 C 124.042969 116.742188 123.164062 116.871094 122.277344 116.960938 C 121.390625 117.046875 120.503906 117.089844 119.613281 117.089844 C 118.722656 117.089844 117.832031 117.046875 116.945312 116.960938 C 116.058594 116.871094 115.179688 116.742188 114.304688 116.566406 C 113.433594 116.394531 112.570312 116.175781 111.714844 115.917969 C 110.863281 115.660156 110.027344 115.359375 109.203125 115.019531 C 108.378906 114.679688 107.574219 114.296875 106.789062 113.878906 C 106.003906 113.457031 105.242188 113 104.5 112.507812 C 103.761719 112.011719 103.046875 111.480469 102.355469 110.917969 C 101.667969 110.351562 101.007812 109.753906 100.378906 109.125 C 99.75 108.492188 99.152344 107.835938 98.585938 107.144531 C 98.023438 106.457031 97.492188 105.742188 96.996094 105.003906 C 96.5 104.261719 96.042969 103.5 95.625 102.710938 C 95.203125 101.925781 94.824219 101.121094 94.484375 100.300781 C 94.140625 99.476562 93.84375 98.640625 93.585938 97.785156 C 93.324219 96.933594 93.109375 96.070312 92.9375 95.199219 C 92.761719 94.324219 92.632812 93.445312 92.542969 92.558594 C 92.457031 91.671875 92.414062 90.78125 92.414062 89.890625 C 92.414062 89 92.457031 88.113281 92.542969 87.226562 C 92.632812 86.339844 92.761719 85.457031 92.9375 84.585938 C 93.109375 83.710938 93.324219 82.847656 93.585938 81.996094 C 93.84375 81.144531 94.140625 80.304688 94.484375 79.484375 C 94.824219 78.660156 95.203125 77.855469 95.625 77.070312 C 96.042969 76.285156 96.5 75.519531 96.996094 74.78125 C 97.492188 74.039062 98.023438 73.324219 98.585938 72.636719 C 99.152344 71.949219 99.75 71.289062 100.378906 70.660156 C 101.007812 70.027344 101.667969 69.433594 102.355469 68.867188 C 103.046875 68.300781 103.761719 67.773438 104.5 67.277344 C 105.242188 66.78125 106.003906 66.324219 106.789062 65.90625 C 107.574219 65.484375 108.378906 65.105469 109.203125 64.761719 C 110.027344 64.421875 110.863281 64.121094 111.714844 63.863281 C 112.570312 63.605469 113.433594 63.390625 114.304688 63.214844 C 115.179688 63.042969 116.058594 62.910156 116.945312 62.824219 C 117.832031 62.738281 118.722656 62.691406 119.613281 62.691406 C 120.503906 62.691406 121.390625 62.738281 122.277344 62.824219 C 123.164062 62.910156 124.042969 63.042969 124.917969 63.214844 C 125.792969 63.390625 126.65625 63.605469 127.507812 63.863281 C 128.359375 64.121094 129.195312 64.421875 130.019531 64.761719 C 130.84375 65.105469 131.648438 65.484375 132.433594 65.90625 C 133.21875 66.324219 133.980469 66.78125 134.722656 67.277344 C 135.464844 67.773438 136.175781 68.300781 136.867188 68.867188 C 137.554688 69.433594 138.214844 70.027344 138.84375 70.660156 C 139.472656 71.289062 140.070312 71.949219 140.636719 72.636719 C 141.203125 73.324219 141.730469 74.039062 142.226562 74.78125 C 142.722656 75.519531 143.179688 76.285156 143.597656 77.070312 C 144.019531 77.855469 144.398438 78.660156 144.738281 79.484375 C 145.082031 80.304688 145.378906 81.144531 145.640625 81.996094 C 145.898438 82.847656 146.113281 83.710938 146.289062 84.585938 C 146.460938 85.457031 146.59375 86.339844 146.679688 87.226562 C 146.765625 88.113281 146.808594 89 146.808594 89.890625 Z M 146.808594 89.890625 " fill-opacity="1" fill-rule="nonzero"/></g></svg>