<svg xmlns="http://www.w3.org/2000/svg" xmlns:xlink="http://www.w3.org/1999/xlink" width="559" zoomAndPan="magnify" viewBox="0 0 419.25 297.75" height="396" preserveAspectRatio="xMidYMid meet" version="1.0"><defs><filter x="0%" y="0%" width="100%" height="100%" id="e08c1f25c2"><feColorMatrix values="0 0 0 0 1 0 0 0 0 1 0 0 0 0 1 0 0 0 1 0" color-interpolation-filters="sRGB"/></filter><clipPath id="05b77fa3ee"><path d="M 0 33 L 418.5 33 L 418.5 264 L 0 264 Z M 0 33 " clip-rule="nonzero"/></clipPath><mask id="16a5d97f65"><g filter="url(#e08c1f25c2)"><rect x="-41.925" width="503.1" fill="#000000" y="-29.775" height="357.3" fill-opacity="0.61"/></g></mask><clipPath id="0aa9dc813a"><path d="M 0 0.984375 L 418.5 0.984375 L 418.5 230.402344 L 0 230.402344 Z M 0 0.984375 " clip-rule="nonzero"/></clipPath><clipPath id="77657551ee"><path d="M 0 0.984375 L 281.5 0.984375 L 418.777344 115.695312 L 281.5 230.402344 L 0 230.402344 L 137.277344 115.695312 Z M 0 0.984375 " clip-rule="nonzero"/></clipPath><clipPath id="bfe9117cc1"><rect x="0" width="419" y="0" height="231"/></clipPath></defs><g clip-path="url(#05b77fa3ee)"><g mask="url(#16a5d97f65)"><g transform="matrix(1, 0, 0, 1, 0, 33)"><g clip-path="url(#bfe9117cc1)"><g clip-path="url(#0aa9dc813a)"><g clip-path="url(#77657551ee)"><path fill="#569da6" d="M 0 0.984375 L 418.503906 0.984375 L 418.503906 230.402344 L 0 230.402344 Z M 0 0.984375 " fill-opacity="1" fill-rule="nonzero"/></g></g></g></g></g></g></svg>