<svg xmlns="http://www.w3.org/2000/svg" xmlns:xlink="http://www.w3.org/1999/xlink" width="500" zoomAndPan="magnify" viewBox="0 0 375 374.999991" height="500" preserveAspectRatio="xMidYMid meet" version="1.0"><defs><filter x="0%" y="0%" width="100%" height="100%" id="645f57f72c"><feColorMatrix values="0 0 0 0 1 0 0 0 0 1 0 0 0 0 1 0 0 0 1 0" color-interpolation-filters="sRGB"/></filter><mask id="a153d03ce3"><g filter="url(#645f57f72c)"><rect x="-37.5" width="450" fill="#000000" y="-37.499999" height="449.999989" fill-opacity="0.69"/></g></mask><clipPath id="16d9c2f67f"><rect x="0" width="375" y="0" height="375"/></clipPath></defs><g mask="url(#a153d03ce3)"><g transform="matrix(1, 0, 0, 1, 0, 0)"><g clip-path="url(#16d9c2f67f)"><path fill="#f9fafd" d="M 375 187.5 C 375 184.429688 374.925781 181.363281 374.773438 178.300781 C 374.625 175.234375 374.398438 172.175781 374.097656 169.121094 C 373.796875 166.066406 373.421875 163.023438 372.96875 159.988281 C 372.519531 156.953125 371.996094 153.929688 371.398438 150.921875 C 370.796875 147.910156 370.125 144.917969 369.378906 141.941406 C 368.636719 138.964844 367.816406 136.007812 366.925781 133.070312 C 366.035156 130.136719 365.074219 127.222656 364.039062 124.332031 C 363.003906 121.445312 361.902344 118.582031 360.726562 115.746094 C 359.554688 112.910156 358.308594 110.105469 356.996094 107.332031 C 355.6875 104.558594 354.308594 101.820312 352.859375 99.113281 C 351.414062 96.40625 349.902344 93.738281 348.324219 91.105469 C 346.746094 88.472656 345.105469 85.882812 343.402344 83.332031 C 341.695312 80.777344 339.929688 78.269531 338.101562 75.804688 C 336.273438 73.339844 334.386719 70.921875 332.4375 68.550781 C 330.492188 66.179688 328.488281 63.855469 326.429688 61.582031 C 324.367188 59.308594 322.253906 57.085938 320.082031 54.917969 C 317.914062 52.746094 315.691406 50.632812 313.417969 48.570312 C 311.144531 46.511719 308.820312 44.507812 306.449219 42.558594 C 304.078125 40.613281 301.660156 38.726562 299.195312 36.898438 C 296.730469 35.070312 294.222656 33.304688 291.667969 31.597656 C 289.117188 29.894531 286.527344 28.253906 283.894531 26.675781 C 281.261719 25.097656 278.59375 23.585938 275.886719 22.140625 C 273.179688 20.691406 270.441406 19.3125 267.667969 18.003906 C 264.894531 16.691406 262.089844 15.445312 259.253906 14.273438 C 256.417969 13.097656 253.554688 11.996094 250.667969 10.960938 C 247.777344 9.925781 244.863281 8.964844 241.929688 8.074219 C 238.992188 7.183594 236.035156 6.363281 233.058594 5.617188 C 230.082031 4.875 227.089844 4.203125 224.078125 3.601562 C 221.070312 3.003906 218.046875 2.480469 215.011719 2.03125 C 211.976562 1.578125 208.933594 1.203125 205.878906 0.902344 C 202.824219 0.601562 199.765625 0.375 196.699219 0.226562 C 193.636719 0.0742188 190.570312 0 187.5 0 C 184.429688 0 181.363281 0.0742188 178.300781 0.226562 C 175.234375 0.375 172.175781 0.601562 169.121094 0.902344 C 166.066406 1.203125 163.023438 1.578125 159.988281 2.03125 C 156.953125 2.480469 153.929688 3.003906 150.921875 3.601562 C 147.910156 4.203125 144.917969 4.875 141.941406 5.617188 C 138.964844 6.363281 136.007812 7.183594 133.070312 8.074219 C 130.136719 8.964844 127.222656 9.925781 124.332031 10.960938 C 121.445312 11.996094 118.582031 13.097656 115.746094 14.273438 C 112.910156 15.445312 110.109375 16.691406 107.332031 18.003906 C 104.558594 19.3125 101.820312 20.691406 99.113281 22.140625 C 96.40625 23.585938 93.738281 25.097656 91.105469 26.675781 C 88.472656 28.253906 85.882812 29.894531 83.332031 31.597656 C 80.777344 33.304688 78.269531 35.070312 75.804688 36.898438 C 73.339844 38.726562 70.921875 40.613281 68.550781 42.558594 C 66.179688 44.507812 63.855469 46.511719 61.582031 48.570312 C 59.308594 50.632812 57.085938 52.746094 54.917969 54.917969 C 52.746094 57.085938 50.632812 59.308594 48.570312 61.582031 C 46.511719 63.855469 44.507812 66.179688 42.5625 68.550781 C 40.613281 70.921875 38.726562 73.339844 36.898438 75.804688 C 35.070312 78.269531 33.304688 80.777344 31.597656 83.332031 C 29.894531 85.882812 28.253906 88.472656 26.675781 91.105469 C 25.097656 93.738281 23.585938 96.40625 22.140625 99.113281 C 20.691406 101.820312 19.3125 104.558594 18.003906 107.332031 C 16.691406 110.105469 15.445312 112.910156 14.273438 115.746094 C 13.097656 118.582031 11.996094 121.445312 10.960938 124.332031 C 9.925781 127.222656 8.964844 130.136719 8.074219 133.070312 C 7.183594 136.007812 6.363281 138.964844 5.621094 141.941406 C 4.875 144.917969 4.203125 147.910156 3.601562 150.921875 C 3.003906 153.929688 2.480469 156.953125 2.03125 159.988281 C 1.578125 163.023438 1.203125 166.066406 0.902344 169.121094 C 0.601562 172.175781 0.375 175.234375 0.226562 178.300781 C 0.0742188 181.363281 0 184.429688 0 187.5 C 0 190.570312 0.0742188 193.636719 0.226562 196.699219 C 0.375 199.765625 0.601562 202.824219 0.902344 205.878906 C 1.203125 208.933594 1.578125 211.976562 2.03125 215.011719 C 2.480469 218.046875 3.003906 221.070312 3.601562 224.078125 C 4.203125 227.089844 4.875 230.082031 5.621094 233.058594 C 6.363281 236.035156 7.183594 238.992188 8.074219 241.929688 C 8.964844 244.863281 9.925781 247.777344 10.960938 250.667969 C 11.996094 253.554688 13.097656 256.417969 14.273438 259.253906 C 15.445312 262.089844 16.691406 264.890625 18.003906 267.667969 C 19.3125 270.441406 20.691406 273.179688 22.140625 275.886719 C 23.585938 278.59375 25.097656 281.261719 26.675781 283.894531 C 28.253906 286.527344 29.894531 289.117188 31.597656 291.667969 C 33.304688 294.222656 35.070312 296.730469 36.898438 299.195312 C 38.726562 301.660156 40.613281 304.078125 42.5625 306.449219 C 44.507812 308.820312 46.511719 311.144531 48.570312 313.417969 C 50.632812 315.691406 52.746094 317.914062 54.917969 320.082031 C 57.085938 322.253906 59.308594 324.367188 61.582031 326.429688 C 63.855469 328.488281 66.179688 330.492188 68.550781 332.4375 C 70.921875 334.386719 73.339844 336.273438 75.804688 338.101562 C 78.269531 339.929688 80.777344 341.695312 83.332031 343.402344 C 85.882812 345.105469 88.472656 346.746094 91.105469 348.324219 C 93.738281 349.902344 96.40625 351.414062 99.113281 352.859375 C 101.820312 354.308594 104.558594 355.6875 107.332031 356.996094 C 110.109375 358.308594 112.910156 359.554688 115.746094 360.726562 C 118.582031 361.902344 121.445312 363.003906 124.332031 364.039062 C 127.222656 365.074219 130.136719 366.035156 133.070312 366.925781 C 136.007812 367.816406 138.964844 368.636719 141.941406 369.378906 C 144.917969 370.125 147.910156 370.796875 150.921875 371.398438 C 153.929688 371.996094 156.953125 372.519531 159.988281 372.96875 C 163.023438 373.421875 166.066406 373.796875 169.121094 374.097656 C 172.175781 374.398438 175.234375 374.625 178.300781 374.773438 C 181.363281 374.925781 184.429688 375 187.5 375 C 190.570312 375 193.636719 374.925781 196.699219 374.773438 C 199.765625 374.625 202.824219 374.398438 205.878906 374.097656 C 208.933594 373.796875 211.976562 373.421875 215.011719 372.96875 C 218.046875 372.519531 221.070312 371.996094 224.078125 371.398438 C 227.089844 370.796875 230.082031 370.125 233.058594 369.378906 C 236.035156 368.636719 238.992188 367.816406 241.929688 366.925781 C 244.863281 366.035156 247.777344 365.074219 250.667969 364.039062 C 253.554688 363.003906 256.417969 361.902344 259.253906 360.726562 C 262.089844 359.554688 264.894531 358.308594 267.667969 356.996094 C 270.441406 355.6875 273.179688 354.308594 275.886719 352.859375 C 278.59375 351.414062 281.261719 349.902344 283.894531 348.324219 C 286.527344 346.746094 289.117188 345.105469 291.667969 343.402344 C 294.222656 341.695312 296.730469 339.929688 299.195312 338.101562 C 301.660156 336.273438 304.078125 334.386719 306.449219 332.4375 C 308.820312 330.492188 311.144531 328.488281 313.417969 326.429688 C 315.691406 324.367188 317.914062 322.253906 320.082031 320.082031 C 322.253906 317.914062 324.367188 315.691406 326.429688 313.417969 C 328.488281 311.144531 330.492188 308.820312 332.4375 306.449219 C 334.386719 304.078125 336.273438 301.660156 338.101562 299.195312 C 339.929688 296.730469 341.695312 294.222656 343.402344 291.667969 C 345.105469 289.117188 346.746094 286.527344 348.324219 283.894531 C 349.902344 281.261719 351.414062 278.59375 352.859375 275.886719 C 354.308594 273.179688 355.6875 270.441406 356.996094 267.667969 C 358.308594 264.890625 359.554688 262.089844 360.726562 259.253906 C 361.902344 256.417969 363.003906 253.554688 364.039062 250.667969 C 365.074219 247.777344 366.035156 244.863281 366.925781 241.929688 C 367.816406 238.992188 368.636719 236.035156 369.378906 233.058594 C 370.125 230.082031 370.796875 227.089844 371.398438 224.078125 C 371.996094 221.070312 372.519531 218.046875 372.96875 215.011719 C 373.421875 211.976562 373.796875 208.933594 374.097656 205.878906 C 374.398438 202.824219 374.625 199.765625 374.773438 196.699219 C 374.925781 193.636719 375 190.570312 375 187.5 Z M 174.1875 294.5625 L 99.1875 219.5625 C 98.75 219.128906 98.332031 218.671875 97.941406 218.195312 C 97.546875 217.722656 97.179688 217.226562 96.832031 216.714844 C 96.488281 216.203125 96.171875 215.675781 95.878906 215.132812 C 95.585938 214.585938 95.320312 214.03125 95.082031 213.460938 C 94.847656 212.890625 94.636719 212.3125 94.457031 211.71875 C 94.277344 211.128906 94.125 210.53125 94.003906 209.925781 C 93.882812 209.320312 93.792969 208.710938 93.734375 208.097656 C 93.671875 207.484375 93.640625 206.867188 93.640625 206.25 C 93.640625 205.632812 93.671875 205.015625 93.734375 204.402344 C 93.792969 203.789062 93.882812 203.179688 94.003906 202.574219 C 94.125 201.96875 94.277344 201.371094 94.457031 200.78125 C 94.636719 200.1875 94.847656 199.609375 95.082031 199.039062 C 95.320312 198.46875 95.585938 197.914062 95.878906 197.367188 C 96.171875 196.824219 96.488281 196.296875 96.832031 195.785156 C 97.179688 195.273438 97.546875 194.777344 97.941406 194.304688 C 98.332031 193.828125 98.75 193.371094 99.1875 192.9375 C 99.621094 192.5 100.078125 192.082031 100.554688 191.691406 C 101.027344 191.296875 101.523438 190.929688 102.035156 190.582031 C 102.546875 190.238281 103.074219 189.921875 103.617188 189.628906 C 104.164062 189.335938 104.71875 189.070312 105.289062 188.832031 C 105.859375 188.597656 106.4375 188.386719 107.03125 188.207031 C 107.621094 188.027344 108.21875 187.875 108.824219 187.753906 C 109.429688 187.632812 110.039062 187.542969 110.652344 187.484375 C 111.265625 187.421875 111.882812 187.390625 112.5 187.390625 C 113.117188 187.390625 113.734375 187.421875 114.347656 187.484375 C 114.960938 187.542969 115.570312 187.632812 116.175781 187.753906 C 116.78125 187.875 117.378906 188.027344 117.96875 188.207031 C 118.5625 188.386719 119.140625 188.597656 119.710938 188.832031 C 120.28125 189.070312 120.835938 189.335938 121.382812 189.628906 C 121.925781 189.921875 122.453125 190.238281 122.964844 190.582031 C 123.476562 190.929688 123.972656 191.296875 124.445312 191.691406 C 124.921875 192.082031 125.378906 192.5 125.8125 192.9375 L 168.75 236.0625 L 168.75 93.75 C 168.75 93.136719 168.78125 92.523438 168.839844 91.914062 C 168.902344 91.300781 168.992188 90.695312 169.109375 90.09375 C 169.230469 89.488281 169.378906 88.894531 169.558594 88.308594 C 169.734375 87.71875 169.941406 87.140625 170.175781 86.574219 C 170.414062 86.007812 170.675781 85.453125 170.964844 84.910156 C 171.253906 84.371094 171.570312 83.84375 171.910156 83.332031 C 172.25 82.824219 172.617188 82.328125 173.007812 81.855469 C 173.394531 81.378906 173.808594 80.925781 174.242188 80.492188 C 174.675781 80.058594 175.128906 79.644531 175.605469 79.257812 C 176.078125 78.867188 176.574219 78.5 177.082031 78.160156 C 177.59375 77.820312 178.121094 77.503906 178.660156 77.214844 C 179.203125 76.925781 179.757812 76.664062 180.324219 76.425781 C 180.890625 76.191406 181.46875 75.984375 182.058594 75.808594 C 182.644531 75.628906 183.238281 75.480469 183.84375 75.359375 C 184.445312 75.242188 185.050781 75.152344 185.664062 75.089844 C 186.273438 75.03125 186.886719 75 187.5 75 C 188.113281 75 188.726562 75.03125 189.335938 75.089844 C 189.949219 75.152344 190.554688 75.242188 191.15625 75.359375 C 191.761719 75.480469 192.355469 75.628906 192.941406 75.808594 C 193.53125 75.984375 194.109375 76.191406 194.675781 76.425781 C 195.242188 76.664062 195.796875 76.925781 196.339844 77.214844 C 196.878906 77.503906 197.40625 77.820312 197.917969 78.160156 C 198.425781 78.5 198.921875 78.867188 199.394531 79.257812 C 199.871094 79.644531 200.324219 80.058594 200.757812 80.492188 C 201.191406 80.925781 201.605469 81.378906 201.992188 81.855469 C 202.382812 82.328125 202.75 82.824219 203.089844 83.332031 C 203.429688 83.84375 203.746094 84.371094 204.035156 84.910156 C 204.324219 85.453125 204.585938 86.007812 204.824219 86.574219 C 205.058594 87.140625 205.265625 87.71875 205.441406 88.308594 C 205.621094 88.894531 205.769531 89.488281 205.890625 90.09375 C 206.007812 90.695312 206.097656 91.300781 206.160156 91.914062 C 206.21875 92.523438 206.25 93.136719 206.25 93.75 L 206.25 236.0625 L 249.1875 192.9375 C 249.625 192.5 250.078125 192.089844 250.554688 191.695312 C 251.03125 191.304688 251.527344 190.9375 252.039062 190.597656 C 252.554688 190.253906 253.082031 189.9375 253.625 189.644531 C 254.167969 189.355469 254.726562 189.09375 255.296875 188.855469 C 255.863281 188.621094 256.445312 188.414062 257.035156 188.234375 C 257.625 188.054688 258.222656 187.90625 258.828125 187.785156 C 259.433594 187.664062 260.039062 187.574219 260.65625 187.515625 C 261.269531 187.453125 261.882812 187.421875 262.5 187.421875 C 263.117188 187.421875 263.730469 187.453125 264.34375 187.515625 C 264.957031 187.574219 265.566406 187.664062 266.171875 187.785156 C 266.777344 187.90625 267.375 188.054688 267.964844 188.234375 C 268.554688 188.414062 269.136719 188.621094 269.703125 188.855469 C 270.273438 189.09375 270.832031 189.355469 271.375 189.644531 C 271.917969 189.9375 272.445312 190.253906 272.960938 190.597656 C 273.472656 190.9375 273.96875 191.304688 274.445312 191.695312 C 274.921875 192.089844 275.375 192.5 275.8125 192.9375 C 276.25 193.375 276.660156 193.828125 277.054688 194.304688 C 277.445312 194.78125 277.8125 195.277344 278.152344 195.789062 C 278.496094 196.304688 278.8125 196.832031 279.105469 197.375 C 279.394531 197.917969 279.65625 198.476562 279.894531 199.046875 C 280.128906 199.613281 280.335938 200.195312 280.515625 200.785156 C 280.695312 201.375 280.84375 201.972656 280.964844 202.578125 C 281.085938 203.183594 281.175781 203.792969 281.234375 204.40625 C 281.296875 205.019531 281.328125 205.632812 281.328125 206.25 C 281.328125 206.867188 281.296875 207.480469 281.234375 208.09375 C 281.175781 208.707031 281.085938 209.316406 280.964844 209.921875 C 280.84375 210.527344 280.695312 211.125 280.515625 211.714844 C 280.335938 212.304688 280.128906 212.886719 279.894531 213.453125 C 279.65625 214.023438 279.394531 214.582031 279.105469 215.125 C 278.8125 215.667969 278.496094 216.195312 278.152344 216.710938 C 277.8125 217.222656 277.445312 217.71875 277.054688 218.195312 C 276.660156 218.671875 276.25 219.125 275.8125 219.5625 L 200.8125 294.5625 C 199.011719 296.285156 196.949219 297.597656 194.625 298.5 C 192.34375 299.4375 189.96875 299.90625 187.5 299.90625 C 185.03125 299.90625 182.65625 299.4375 180.375 298.5 C 178.050781 297.597656 175.988281 296.285156 174.1875 294.5625 Z M 174.1875 294.5625 " fill-opacity="1" fill-rule="nonzero"/></g></g></g></svg>