<svg xmlns="http://www.w3.org/2000/svg" xmlns:xlink="http://www.w3.org/1999/xlink" width="500" zoomAndPan="magnify" viewBox="0 0 375 374.999991" height="500" preserveAspectRatio="xMidYMid meet" version="1.0"><defs><g/><clipPath id="c00c3ad6c6"><path d="M 49.28125 132.648438 L 339.84375 132.648438 L 339.84375 248.875 L 49.28125 248.875 Z M 49.28125 132.648438 " clip-rule="nonzero"/></clipPath><clipPath id="a911cfe113"><path d="M 77.03125 132.648438 L 311.746094 132.648438 C 327.074219 132.648438 339.496094 145.074219 339.496094 160.398438 L 339.496094 221.125 C 339.496094 236.449219 327.074219 248.875 311.746094 248.875 L 77.03125 248.875 C 61.703125 248.875 49.28125 236.449219 49.28125 221.125 L 49.28125 160.398438 C 49.28125 145.074219 61.703125 132.648438 77.03125 132.648438 Z M 77.03125 132.648438 " clip-rule="nonzero"/></clipPath><clipPath id="d3dd372a21"><path d="M 0 132.648438 L 128 132.648438 L 128 248.875 L 0 248.875 Z M 0 132.648438 " clip-rule="nonzero"/></clipPath><clipPath id="15f74f5e53"><path d="M 63.839844 132.648438 C 28.582031 132.648438 0 158.667969 0 190.761719 C 0 222.855469 28.582031 248.875 63.839844 248.875 C 99.097656 248.875 127.679688 222.855469 127.679688 190.761719 C 127.679688 158.667969 99.097656 132.648438 63.839844 132.648438 Z M 63.839844 132.648438 " clip-rule="nonzero"/></clipPath><clipPath id="0924e9d066"><path d="M 247.320312 132.648438 L 375 132.648438 L 375 248.875 L 247.320312 248.875 Z M 247.320312 132.648438 " clip-rule="nonzero"/></clipPath><clipPath id="888faec47a"><path d="M 311.160156 132.648438 C 275.902344 132.648438 247.320312 158.667969 247.320312 190.761719 C 247.320312 222.855469 275.902344 248.875 311.160156 248.875 C 346.417969 248.875 375 222.855469 375 190.761719 C 375 158.667969 346.417969 132.648438 311.160156 132.648438 Z M 311.160156 132.648438 " clip-rule="nonzero"/></clipPath></defs><g clip-path="url(#c00c3ad6c6)"><g clip-path="url(#a911cfe113)"><path fill="#569da6" d="M 49.28125 132.648438 L 339.386719 132.648438 L 339.386719 248.875 L 49.28125 248.875 Z M 49.28125 132.648438 " fill-opacity="1" fill-rule="nonzero"/></g></g><g clip-path="url(#d3dd372a21)"><g clip-path="url(#15f74f5e53)"><path fill="#569da6" d="M 0 132.648438 L 127.574219 132.648438 L 127.574219 248.875 L 0 248.875 Z M 0 132.648438 " fill-opacity="1" fill-rule="nonzero"/></g></g><g clip-path="url(#0924e9d066)"><g clip-path="url(#888faec47a)"><path fill="#569da6" d="M 247.320312 132.648438 L 374.894531 132.648438 L 374.894531 248.875 L 247.320312 248.875 Z M 247.320312 132.648438 " fill-opacity="1" fill-rule="nonzero"/></g></g><g fill="#ffffff" fill-opacity="1"><g transform="translate(13.339949, 219.378871)"><g/></g></g><g fill="#ffffff" fill-opacity="1"><g transform="translate(29.123734, 219.378871)"><g><path d="M 21.78125 0 L 33.6875 0 L 33.6875 -35.84375 C 33.6875 -49.46875 29.078125 -54.40625 17.375 -54.40625 L 1.5 -54.40625 L 1.5 -43.671875 L 13.625 -43.671875 C 19.75 -43.671875 21.78125 -40.984375 21.78125 -34.65625 Z M 21.78125 0 "/></g></g></g><g fill="#ffffff" fill-opacity="1"><g transform="translate(67.428252, 219.378871)"><g><path d="M 33.796875 -10.734375 L 33.796875 -35.84375 C 33.796875 -49.359375 29.078125 -54.40625 16.84375 -54.40625 L 3.4375 -54.40625 L 3.4375 -43.671875 L 13.953125 -43.671875 C 20.171875 -43.671875 21.890625 -40.984375 21.890625 -34.546875 L 21.890625 -10.734375 L 2.796875 -10.734375 L 2.796875 0 L 39.59375 0 L 39.59375 -10.734375 Z M 33.796875 -10.734375 "/></g></g></g><g fill="#ffffff" fill-opacity="1"><g transform="translate(108.737042, 219.378871)"><g><path d="M 25.96875 -53.65625 L 14.265625 -53.65625 L 13.84375 -58.375 L 2.46875 -56.546875 L 7.71875 0.109375 L 17.484375 0.75 C 36.59375 -6.4375 44.953125 -19.640625 44.953125 -34.765625 C 44.953125 -48.71875 38.84375 -53.65625 25.96875 -53.65625 Z M 17.703125 -11.046875 L 15.015625 -43.453125 L 24.25 -43.453125 C 30.25 -43.453125 32.828125 -40.671875 32.828125 -33.484375 C 32.9375 -24.140625 28.328125 -15.34375 17.703125 -11.046875 Z M 17.703125 -11.046875 "/></g></g></g><g fill="#ffffff" fill-opacity="1"><g transform="translate(156.161681, 219.378871)"><g><path d="M 30.796875 0 L 42.703125 0 L 42.703125 -35.84375 C 42.703125 -49.46875 38.09375 -54.40625 26.390625 -54.40625 L 4.1875 -54.40625 L 4.1875 -43.671875 L 22.53125 -43.671875 C 28.640625 -43.671875 30.796875 -40.984375 30.796875 -34.65625 Z M 5.046875 0 L 16.84375 0 L 16.84375 -30.796875 L 5.046875 -30.796875 Z M 5.046875 0 "/></g></g></g><g fill="#ffffff" fill-opacity="1"><g transform="translate(203.47903, 219.378871)"><g/></g></g><g fill="#ffffff" fill-opacity="1"><g transform="translate(219.251475, 219.378871)"><g><path d="M 30.578125 -54.40625 L 3.4375 -54.40625 L 3.4375 -43.671875 L 9.4375 -43.671875 L 9.4375 -10.734375 L 2.796875 -10.734375 L 2.796875 0 L 21.03125 0 L 21.03125 -43.671875 L 26.828125 -43.671875 C 33.046875 -43.671875 35.09375 -40.984375 35.09375 -34.65625 L 35.09375 0 L 47 0 L 47 -35.84375 C 47 -49.46875 42.28125 -54.40625 30.578125 -54.40625 Z M 30.578125 -54.40625 "/></g></g></g><g fill="#ffffff" fill-opacity="1"><g transform="translate(270.753351, 219.378871)"><g><path d="M 29.9375 -19.3125 C 37.125 -27.796875 41.203125 -35.40625 41.203125 -42.28125 C 41.203125 -48.0625 38.09375 -51.9375 31.4375 -56.015625 L 24.359375 -48.171875 C 28.328125 -45.171875 29.828125 -42.59375 29.828125 -39.484375 C 29.828125 -36.796875 28.21875 -32.40625 24.890625 -27.140625 C 24.03125 -29.078125 23.171875 -31.015625 22.421875 -32.9375 L 12.984375 -55.46875 L 2.578125 -51.9375 L 11.703125 -30.25 C 14.921875 -21.78125 20.171875 -15.671875 25.21875 -10.296875 C 22.421875 -10.515625 19.3125 -10.84375 15.875 -10.84375 L 3.96875 -10.84375 L 3.96875 0 L 37.984375 0 L 39.703125 -9.125 C 35.84375 -12.453125 32.625 -15.765625 29.9375 -19.3125 Z M 29.9375 -19.3125 "/></g></g></g><g fill="#ffffff" fill-opacity="1"><g transform="translate(314.422649, 219.378871)"><g><path d="M 44.53125 -54.40625 L 3.75 -54.40625 L 3.75 -43.671875 L 31.765625 -43.671875 L 25.75 0 L 37.65625 0 L 45.171875 -53.65625 Z M 5.46875 17.59375 L 17.28125 17.484375 L 17.28125 -30.90625 L 5.46875 -30.90625 Z M 5.46875 17.59375 "/></g></g></g></svg>