<svg xmlns="http://www.w3.org/2000/svg" xmlns:xlink="http://www.w3.org/1999/xlink" width="559" zoomAndPan="magnify" viewBox="0 0 419.25 297.75" height="396" preserveAspectRatio="xMidYMid meet" version="1.0"><defs><g/><clipPath id="b5c45cf511"><path d="M 0 41.957031 L 418.5 41.957031 L 418.5 255.429688 L 0 255.429688 Z M 0 41.957031 " clip-rule="nonzero"/></clipPath><clipPath id="1ad03df250"><path d="M 289.585938 41.957031 C 360.9375 41.957031 418.777344 89.746094 418.777344 148.695312 C 418.777344 207.644531 360.9375 255.429688 289.585938 255.429688 L 129.195312 255.429688 C 57.84375 255.429688 0 207.644531 0 148.695312 C 0 89.746094 57.84375 41.957031 129.195312 41.957031 Z M 289.585938 41.957031 " clip-rule="nonzero"/></clipPath></defs><g clip-path="url(#b5c45cf511)"><g clip-path="url(#1ad03df250)"><path fill="#569da6" d="M 0 41.957031 L 418.605469 41.957031 L 418.605469 255.429688 L 0 255.429688 Z M 0 41.957031 " fill-opacity="1" fill-rule="nonzero"/></g></g><g fill="#f9fafd" fill-opacity="1"><g transform="translate(67.952655, 179.711544)"><g><path d="M 2.09375 -26.34375 L 31.046875 -6.390625 L 31.046875 -15.171875 L 10.078125 -29.546875 L 10.078125 -29.9375 L 31.046875 -43.8125 L 31.140625 -52.40625 L 2.09375 -32.4375 Z M 2.09375 -26.34375 "/></g></g></g><g fill="#f9fafd" fill-opacity="1"><g transform="translate(102.884685, 179.711544)"><g><path d="M 2.09375 -26.34375 L 31.046875 -6.390625 L 31.046875 -15.171875 L 10.078125 -29.546875 L 10.078125 -29.9375 L 31.046875 -43.8125 L 31.140625 -52.40625 L 2.09375 -32.4375 Z M 2.09375 -26.34375 "/></g></g></g><g fill="#f9fafd" fill-opacity="1"><g transform="translate(137.816716, 179.711544)"><g><path d="M 34.828125 -50.609375 L 12.875 -50.609375 L 12.96875 -64.875 L 1.890625 -63.78125 L 1.796875 -40.921875 L 21.453125 -40.921875 L 9.578125 0 L 21.0625 0 L 35.328125 -49.90625 Z M 34.828125 -50.609375 "/></g></g></g><g fill="#f9fafd" fill-opacity="1"><g transform="translate(173.946413, 179.711544)"><g><path d="M 20.15625 -50.609375 L 1.59375 -50.609375 L 1.59375 -40.625 L 9.078125 -40.625 L 9.078125 0 L 20.15625 0 Z M 20.15625 -50.609375 "/></g></g></g><g fill="#f9fafd" fill-opacity="1"><g transform="translate(198.598445, 179.711544)"><g><path d="M 2.296875 1 C 8.390625 -0.703125 13.375 -3.296875 18.171875 -7.6875 L 19.65625 0 L 30.140625 0 L 27.75 -13.46875 L 27.25 -34.53125 C 26.84375 -46.71875 23.453125 -50.796875 13.28125 -50.796875 C 10.078125 -50.796875 7.28125 -50.5 4.09375 -50.203125 L 4.09375 -40.328125 C 6.09375 -40.625 7.984375 -40.71875 9.484375 -40.71875 C 14.265625 -40.71875 16.46875 -38.421875 16.671875 -31.734375 L 16.875 -17.671875 C 12.484375 -14.171875 7.984375 -11.78125 2.296875 -9.984375 Z M 2.296875 1 "/></g></g></g><g fill="#f9fafd" fill-opacity="1"><g transform="translate(231.13514, 179.711544)"><g><path d="M 20.265625 0 L 31.34375 0 L 31.34375 -33.34375 C 31.34375 -46.015625 27.046875 -50.609375 16.171875 -50.609375 L 1.390625 -50.609375 L 1.390625 -40.625 L 12.671875 -40.625 C 18.359375 -40.625 20.265625 -38.125 20.265625 -32.234375 Z M 20.265625 0 "/></g></g></g><g fill="#f9fafd" fill-opacity="1"><g transform="translate(266.765795, 179.711544)"><g><path d="M 28.453125 -50.609375 L 3.1875 -50.609375 L 3.1875 -40.625 L 8.78125 -40.625 L 8.78125 -9.984375 L 2.59375 -9.984375 L 2.59375 0 L 19.5625 0 L 19.5625 -40.625 L 24.953125 -40.625 C 30.75 -40.625 32.640625 -38.125 32.640625 -32.234375 L 32.640625 0 L 43.71875 0 L 43.71875 -33.34375 C 43.71875 -46.015625 39.328125 -50.609375 28.453125 -50.609375 Z M 28.453125 -50.609375 "/></g></g></g><g fill="#f9fafd" fill-opacity="1"><g transform="translate(314.672585, 179.711544)"><g><path d="M 34.828125 -50.609375 L 12.875 -50.609375 L 12.96875 -64.875 L 1.890625 -63.78125 L 1.796875 -40.921875 L 21.453125 -40.921875 L 9.578125 0 L 21.0625 0 L 35.328125 -49.90625 Z M 34.828125 -50.609375 "/></g></g></g></svg>