<svg xmlns="http://www.w3.org/2000/svg" xmlns:xlink="http://www.w3.org/1999/xlink" width="500" zoomAndPan="magnify" viewBox="0 0 375 374.999991" height="500" preserveAspectRatio="xMidYMid meet" version="1.0"><defs><clipPath id="953d9d971a"><path d="M 47 83 L 327 83 L 327 371.785156 L 47 371.785156 Z M 47 83 " clip-rule="nonzero"/></clipPath><clipPath id="fba7f638a2"><path d="M 13 3.535156 L 361 3.535156 L 361 204 L 13 204 Z M 13 3.535156 " clip-rule="nonzero"/></clipPath></defs><g clip-path="url(#953d9d971a)"><path fill="#ffffff" d="M 47.253906 222.847656 L 47.253906 364.960938 C 47.253906 368.53125 50.152344 371.433594 53.726562 371.433594 L 206.253906 371.433594 L 206.253906 242.75 L 277.902344 242.75 L 277.902344 371.433594 L 320.523438 371.433594 C 324.105469 371.433594 326.996094 368.53125 326.996094 364.960938 L 326.996094 222.847656 L 187.207031 83.65625 Z M 161 302.703125 L 96.347656 302.703125 L 96.347656 242.757812 L 161 242.757812 Z M 161 302.703125 " fill-opacity="1" fill-rule="nonzero"/></g><g clip-path="url(#fba7f638a2)"><path fill="#ffffff" d="M 355.328125 171.742188 L 187.132812 3.554688 L 107.785156 82.894531 L 107.785156 47.980469 C 107.785156 39.824219 101.164062 33.203125 93.007812 33.203125 C 84.851562 33.203125 78.234375 39.824219 78.234375 47.980469 L 78.234375 112.449219 L 18.929688 171.742188 C 11.710938 178.960938 11.710938 190.65625 18.929688 197.867188 C 22.535156 201.472656 27.265625 203.277344 31.992188 203.277344 C 36.71875 203.277344 41.441406 201.472656 45.054688 197.875 L 187.140625 55.804688 L 329.210938 197.867188 C 336.429688 205.085938 348.117188 205.085938 355.328125 197.867188 C 362.539062 190.648438 362.539062 178.953125 355.328125 171.742188 Z M 355.328125 171.742188 " fill-opacity="1" fill-rule="nonzero"/></g></svg>