<svg xmlns="http://www.w3.org/2000/svg" xmlns:xlink="http://www.w3.org/1999/xlink" width="559" zoomAndPan="magnify" viewBox="0 0 419.25 297.75" height="396" preserveAspectRatio="xMidYMid meet" version="1.0"><defs><g/><clipPath id="fa04b5cc91"><path d="M 55.035156 76.035156 L 379.515625 76.035156 L 379.515625 205.828125 L 55.035156 205.828125 Z M 55.035156 76.035156 " clip-rule="nonzero"/></clipPath><clipPath id="5c3579a3e9"><path d="M 82.734375 76.035156 L 351.429688 76.035156 C 366.730469 76.035156 379.132812 88.4375 379.132812 103.734375 L 379.132812 178.128906 C 379.132812 193.425781 366.730469 205.828125 351.429688 205.828125 L 82.734375 205.828125 C 67.433594 205.828125 55.035156 193.425781 55.035156 178.128906 L 55.035156 103.734375 C 55.035156 88.4375 67.433594 76.035156 82.734375 76.035156 Z M 82.734375 76.035156 " clip-rule="nonzero"/></clipPath><clipPath id="668589810c"><path d="M 0 76.035156 L 142.976562 76.035156 L 142.976562 205.828125 L 0 205.828125 Z M 0 76.035156 " clip-rule="nonzero"/></clipPath><clipPath id="dd69ec6cf9"><path d="M 71.292969 76.035156 C 31.917969 76.035156 0 105.089844 0 140.933594 C 0 176.773438 31.917969 205.828125 71.292969 205.828125 C 110.667969 205.828125 142.585938 176.773438 142.585938 140.933594 C 142.585938 105.089844 110.667969 76.035156 71.292969 76.035156 Z M 71.292969 76.035156 " clip-rule="nonzero"/></clipPath><clipPath id="124544185a"><path d="M 276.195312 76.035156 L 418.5 76.035156 L 418.5 205.828125 L 276.195312 205.828125 Z M 276.195312 76.035156 " clip-rule="nonzero"/></clipPath><clipPath id="a0bd84b991"><path d="M 347.484375 76.035156 C 308.113281 76.035156 276.195312 105.089844 276.195312 140.933594 C 276.195312 176.773438 308.113281 205.828125 347.484375 205.828125 C 386.859375 205.828125 418.777344 176.773438 418.777344 140.933594 C 418.777344 105.089844 386.859375 76.035156 347.484375 76.035156 Z M 347.484375 76.035156 " clip-rule="nonzero"/></clipPath></defs><g clip-path="url(#fa04b5cc91)"><g clip-path="url(#5c3579a3e9)"><path fill="#569da6" d="M 55.035156 76.035156 L 379.007812 76.035156 L 379.007812 205.828125 L 55.035156 205.828125 Z M 55.035156 76.035156 " fill-opacity="1" fill-rule="nonzero"/></g></g><g clip-path="url(#668589810c)"><g clip-path="url(#dd69ec6cf9)"><path fill="#569da6" d="M 0 76.035156 L 142.46875 76.035156 L 142.46875 205.828125 L 0 205.828125 Z M 0 76.035156 " fill-opacity="1" fill-rule="nonzero"/></g></g><g clip-path="url(#124544185a)"><g clip-path="url(#a0bd84b991)"><path fill="#569da6" d="M 276.195312 76.035156 L 418.660156 76.035156 L 418.660156 205.828125 L 276.195312 205.828125 Z M 276.195312 76.035156 " fill-opacity="1" fill-rule="nonzero"/></g></g><g fill="#ffffff" fill-opacity="1"><g transform="translate(63.647586, 173.06807)"><g><path d="M 32.8125 -58.390625 L 3.6875 -58.390625 L 3.6875 -46.875 L 10.140625 -46.875 L 10.140625 -11.515625 L 3 -11.515625 L 3 0 L 22.578125 0 L 22.578125 -46.875 L 28.78125 -46.875 C 35.46875 -46.875 37.65625 -43.984375 37.65625 -37.203125 L 37.65625 0 L 50.4375 0 L 50.4375 -38.46875 C 50.4375 -53.09375 45.375 -58.390625 32.8125 -58.390625 Z M 32.8125 -58.390625 "/></g></g></g><g fill="#ffffff" fill-opacity="1"><g transform="translate(118.92167, 173.06807)"><g><path d="M 10.828125 -22.34375 L 23.609375 -22.34375 L 23.609375 -58.390625 L 1.84375 -58.390625 L 1.84375 -46.875 L 10.828125 -46.875 Z M 10.828125 -22.34375 "/></g></g></g><g fill="#ffffff" fill-opacity="1"><g transform="translate(147.825403, 173.06807)"><g><path d="M 36.28125 -11.515625 L 36.28125 -38.46875 C 36.28125 -52.96875 31.203125 -58.390625 18.078125 -58.390625 L 3.6875 -58.390625 L 3.6875 -46.875 L 14.96875 -46.875 C 21.65625 -46.875 23.484375 -43.984375 23.484375 -37.078125 L 23.484375 -11.515625 L 3 -11.515625 L 3 0 L 42.5 0 L 42.5 -11.515625 Z M 36.28125 -11.515625 "/></g></g></g><g fill="#ffffff" fill-opacity="1"><g transform="translate(192.159823, 173.06807)"><g/></g></g><g fill="#ffffff" fill-opacity="1"><g transform="translate(209.087515, 173.06807)"><g><path d="M 23.375 18.3125 L 36.15625 18.3125 L 36.15625 -38.46875 C 36.15625 -53.09375 31.203125 -58.390625 18.65625 -58.390625 L 1.609375 -58.390625 L 1.609375 -46.875 L 14.625 -46.875 C 21.1875 -46.875 23.375 -43.984375 23.375 -37.203125 Z M 23.375 18.3125 "/></g></g></g><g fill="#ffffff" fill-opacity="1"><g transform="translate(250.197605, 173.06807)"><g><path d="M 27.875 -57.578125 L 15.3125 -57.578125 L 14.859375 -62.640625 L 2.65625 -60.6875 L 8.296875 0.109375 L 18.765625 0.8125 C 39.265625 -6.90625 48.25 -21.078125 48.25 -37.3125 C 48.25 -52.28125 41.6875 -57.578125 27.875 -57.578125 Z M 19 -11.859375 L 16.125 -46.640625 L 26.03125 -46.640625 C 32.46875 -46.640625 35.234375 -43.640625 35.234375 -35.921875 C 35.359375 -25.90625 30.40625 -16.46875 19 -11.859375 Z M 19 -11.859375 "/></g></g></g><g fill="#ffffff" fill-opacity="1"><g transform="translate(301.095811, 173.06807)"><g><path d="M 26.140625 -11.515625 L 25.109375 0 L 49.171875 0 L 49.0625 -35.921875 C 49.0625 -52.171875 45.375 -59.3125 32.9375 -59.3125 C 27.984375 -59.3125 23.265625 -57.46875 18.765625 -54.234375 L 16.234375 -60.234375 L 4.609375 -55.96875 L 8.984375 -45.140625 L 4.265625 0 L 17.15625 0 L 21.1875 -45.375 C 23.71875 -46.75 26.140625 -47.5625 28.5625 -47.5625 C 34.09375 -47.5625 36.5 -44.328125 36.5 -34.3125 L 36.5 -11.515625 Z M 26.140625 -11.515625 "/></g></g></g></svg>