<svg xmlns="http://www.w3.org/2000/svg" xmlns:xlink="http://www.w3.org/1999/xlink" width="500" zoomAndPan="magnify" viewBox="0 0 375 374.999991" height="500" preserveAspectRatio="xMidYMid meet" version="1.0"><defs><g/><clipPath id="79a1431f66"><path d="M 50.691406 120.292969 L 338 120.292969 L 338 235.332031 L 50.691406 235.332031 Z M 50.691406 120.292969 " clip-rule="nonzero"/></clipPath><clipPath id="e9b85d4ab3"><path d="M 78.441406 120.292969 L 310.199219 120.292969 C 325.523438 120.292969 337.949219 132.714844 337.949219 148.042969 L 337.949219 207.582031 C 337.949219 222.90625 325.523438 235.332031 310.199219 235.332031 L 78.441406 235.332031 C 63.113281 235.332031 50.691406 222.90625 50.691406 207.582031 L 50.691406 148.042969 C 50.691406 132.714844 63.113281 120.292969 78.441406 120.292969 Z M 78.441406 120.292969 " clip-rule="nonzero"/></clipPath><clipPath id="fedd6f708e"><path d="M 1.914062 120.292969 L 128.636719 120.292969 L 128.636719 235.332031 L 1.914062 235.332031 Z M 1.914062 120.292969 " clip-rule="nonzero"/></clipPath><clipPath id="2c253ca2e8"><path d="M 65.101562 120.292969 C 30.203125 120.292969 1.914062 146.046875 1.914062 177.8125 C 1.914062 209.578125 30.203125 235.332031 65.101562 235.332031 C 100 235.332031 128.289062 209.578125 128.289062 177.8125 C 128.289062 146.046875 100 120.292969 65.101562 120.292969 Z M 65.101562 120.292969 " clip-rule="nonzero"/></clipPath><clipPath id="eafde09a63"><path d="M 246.710938 120.292969 L 373 120.292969 L 373 235.332031 L 246.710938 235.332031 Z M 246.710938 120.292969 " clip-rule="nonzero"/></clipPath><clipPath id="d04aaee54a"><path d="M 309.898438 120.292969 C 275 120.292969 246.710938 146.046875 246.710938 177.8125 C 246.710938 209.578125 275 235.332031 309.898438 235.332031 C 344.796875 235.332031 373.085938 209.578125 373.085938 177.8125 C 373.085938 146.046875 344.796875 120.292969 309.898438 120.292969 Z M 309.898438 120.292969 " clip-rule="nonzero"/></clipPath></defs><g clip-path="url(#79a1431f66)"><g clip-path="url(#e9b85d4ab3)"><path fill="#569da6" d="M 50.691406 120.292969 L 337.839844 120.292969 L 337.839844 235.332031 L 50.691406 235.332031 Z M 50.691406 120.292969 " fill-opacity="1" fill-rule="nonzero"/></g></g><g clip-path="url(#fedd6f708e)"><g clip-path="url(#2c253ca2e8)"><path fill="#569da6" d="M 1.914062 120.292969 L 128.1875 120.292969 L 128.1875 235.332031 L 1.914062 235.332031 Z M 1.914062 120.292969 " fill-opacity="1" fill-rule="nonzero"/></g></g><g clip-path="url(#eafde09a63)"><g clip-path="url(#d04aaee54a)"><path fill="#569da6" d="M 246.710938 120.292969 L 372.984375 120.292969 L 372.984375 235.332031 L 246.710938 235.332031 Z M 246.710938 120.292969 " fill-opacity="1" fill-rule="nonzero"/></g></g><g fill="#ffffff" fill-opacity="1"><g transform="translate(62.945933, 212.138675)"><g><path d="M 32.890625 -58.515625 L 3.6875 -58.515625 L 3.6875 -46.96875 L 10.15625 -46.96875 L 10.15625 -11.546875 L 3 -11.546875 L 3 0 L 22.625 0 L 22.625 -46.96875 L 28.859375 -46.96875 C 35.546875 -46.96875 37.734375 -44.078125 37.734375 -37.28125 L 37.734375 0 L 50.546875 0 L 50.546875 -38.546875 C 50.546875 -53.203125 45.46875 -58.515625 32.890625 -58.515625 Z M 32.890625 -58.515625 "/></g></g></g><g fill="#ffffff" fill-opacity="1"><g transform="translate(118.342169, 212.138675)"><g><path d="M 23.3125 -58.515625 L 1.84375 -58.515625 L 1.84375 -46.96875 L 10.5 -46.96875 L 10.5 0 L 23.3125 0 Z M 23.3125 -58.515625 "/></g></g></g><g fill="#ffffff" fill-opacity="1"><g transform="translate(146.848149, 212.138675)"><g><path d="M 39 1.15625 L 49.15625 -5.421875 L 37.5 -22.265625 C 44.546875 -30.8125 47.78125 -38.078125 47.890625 -45.359375 C 48.015625 -51.59375 44.65625 -55.734375 37.5 -60.125 L 29.78125 -51.46875 C 34.046875 -48.234375 35.65625 -46.046875 35.65625 -42.359375 C 35.546875 -39.359375 34.390625 -35.203125 31.390625 -30 L 13.265625 -59.671875 L 2.3125 -53.3125 L 11.3125 -39.8125 C 7.5 -30.234375 4.265625 -16.84375 4.5 0 L 17.078125 0 C 16.5 -11.421875 16.96875 -21.34375 18.578125 -30.8125 Z M 39 1.15625 "/></g></g></g><g fill="#ffffff" fill-opacity="1"><g transform="translate(198.205085, 212.138675)"><g><path d="M 23.421875 0 L 36.234375 0 L 36.234375 -38.546875 C 36.234375 -53.203125 31.28125 -58.515625 18.703125 -58.515625 L 1.609375 -58.515625 L 1.609375 -46.96875 L 14.65625 -46.96875 C 21.234375 -46.96875 23.421875 -44.078125 23.421875 -37.28125 Z M 23.421875 0 "/></g></g></g><g fill="#ffffff" fill-opacity="1"><g transform="translate(239.406038, 212.138675)"><g><path d="M 23.3125 -58.515625 L 1.84375 -58.515625 L 1.84375 -46.96875 L 10.5 -46.96875 L 10.5 0 L 23.3125 0 Z M 23.3125 -58.515625 "/></g></g></g><g fill="#ffffff" fill-opacity="1"><g transform="translate(267.912019, 212.138675)"><g><path d="M 33.125 0 L 45.9375 0 L 45.9375 -38.546875 C 45.9375 -53.203125 40.96875 -58.515625 28.390625 -58.515625 L 4.5 -58.515625 L 4.5 -46.96875 L 24.234375 -46.96875 C 30.8125 -46.96875 33.125 -44.078125 33.125 -37.28125 Z M 5.421875 0 L 18.125 0 L 18.125 -33.125 L 5.421875 -33.125 Z M 5.421875 0 "/></g></g></g></svg>