<svg xmlns="http://www.w3.org/2000/svg" xmlns:xlink="http://www.w3.org/1999/xlink" width="559" zoomAndPan="magnify" viewBox="0 0 419.25 297.75" height="396" preserveAspectRatio="xMidYMid meet" version="1.0"><defs><filter x="0%" y="0%" width="100%" height="100%" id="8e46117dc2"><feColorMatrix values="0 0 0 0 1 0 0 0 0 1 0 0 0 0 1 0 0 0 1 0" color-interpolation-filters="sRGB"/></filter><clipPath id="3208bb2cf4"><path d="M 0 38 L 418.5 38 L 418.5 260 L 0 260 Z M 0 38 " clip-rule="nonzero"/></clipPath><mask id="8c9ffa7caa"><g filter="url(#8e46117dc2)"><rect x="-41.925" width="503.1" fill="#000000" y="-29.775" height="357.3" fill-opacity="0.61"/></g></mask><clipPath id="60f38a4c73"><path d="M 0 0.238281 L 418.5 0.238281 L 418.5 221.128906 L 0 221.128906 Z M 0 0.238281 " clip-rule="nonzero"/></clipPath><clipPath id="a91b4f3b2c"><path d="M 418.769531 221.128906 L 137.269531 221.128906 L -0.0078125 110.683594 L 137.269531 0.238281 L 418.769531 0.238281 L 281.492188 110.683594 Z M 418.769531 221.128906 " clip-rule="nonzero"/></clipPath><clipPath id="6f623a0522"><rect x="0" width="419" y="0" height="222"/></clipPath></defs><g clip-path="url(#3208bb2cf4)"><g mask="url(#8c9ffa7caa)"><g transform="matrix(1, 0, 0, 1, 0, 38)"><g clip-path="url(#6f623a0522)"><g clip-path="url(#60f38a4c73)"><g clip-path="url(#a91b4f3b2c)"><path fill="#569da6" d="M 418.769531 221.128906 L 0.289062 221.128906 L 0.289062 0.238281 L 418.769531 0.238281 Z M 418.769531 221.128906 " fill-opacity="1" fill-rule="nonzero"/></g></g></g></g></g></g></svg>