<svg xmlns="http://www.w3.org/2000/svg" xmlns:xlink="http://www.w3.org/1999/xlink" width="793" zoomAndPan="magnify" viewBox="0 0 595.5 842.249979" height="1122" preserveAspectRatio="xMidYMid meet" version="1.0"><defs><filter x="0%" y="0%" width="100%" height="100%" id="5c250204b6"><feColorMatrix values="0 0 0 0 1 0 0 0 0 1 0 0 0 0 1 0 0 0 1 0" color-interpolation-filters="sRGB"/></filter><clipPath id="dd2b54bc2c"><path d="M 0.015625 0 L 594.984375 0 L 594.984375 841.5 L 0.015625 841.5 Z M 0.015625 0 " clip-rule="nonzero"/></clipPath><mask id="98ab309691"><g filter="url(#5c250204b6)"><rect x="-59.55" width="714.6" fill="#000000" y="-84.224998" height="1010.699974" fill-opacity="0.5"/></g></mask><clipPath id="47efbf6800"><path d="M 0.015625 0 L 594.761719 0 L 594.761719 841.5 L 0.015625 841.5 Z M 0.015625 0 " clip-rule="nonzero"/></clipPath><clipPath id="7376593583"><path d="M 27.742188 0 L 567.035156 0 C 574.390625 0 581.441406 2.921875 586.640625 8.121094 C 591.839844 13.320312 594.761719 20.371094 594.761719 27.726562 L 594.761719 813.414062 C 594.761719 820.769531 591.839844 827.820312 586.640625 833.019531 C 581.441406 838.21875 574.390625 841.140625 567.035156 841.140625 L 27.742188 841.140625 C 20.386719 841.140625 13.335938 838.21875 8.136719 833.019531 C 2.9375 827.820312 0.015625 820.769531 0.015625 813.414062 L 0.015625 27.726562 C 0.015625 20.371094 2.9375 13.320312 8.136719 8.121094 C 13.335938 2.921875 20.386719 0 27.742188 0 Z M 27.742188 0 " clip-rule="nonzero"/></clipPath><clipPath id="5556939e62"><rect x="0" width="595" y="0" height="842"/></clipPath></defs><g clip-path="url(#dd2b54bc2c)"><g mask="url(#98ab309691)"><g transform="matrix(1, 0, 0, 1, -0.000000000000000002, 0)"><g clip-path="url(#5556939e62)"><g clip-path="url(#47efbf6800)"><g clip-path="url(#7376593583)"><path fill="#040949" d="M 0.015625 0 L 594.761719 0 L 594.761719 841.007812 L 0.015625 841.007812 Z M 0.015625 0 " fill-opacity="1" fill-rule="nonzero"/></g></g></g></g></g></g></svg>