<svg xmlns="http://www.w3.org/2000/svg" xmlns:xlink="http://www.w3.org/1999/xlink" width="559" zoomAndPan="magnify" viewBox="0 0 419.25 297.75" height="396" preserveAspectRatio="xMidYMid meet" version="1.0"><defs><g/><clipPath id="0ced67a6b0"><path d="M 0 78.1875 L 142.667969 78.1875 L 142.667969 219.199219 L 0 219.199219 Z M 0 78.1875 " clip-rule="nonzero"/></clipPath><clipPath id="40fcde2292"><path d="M 71.292969 78.1875 C 31.917969 78.1875 0 109.753906 0 148.695312 C 0 187.632812 31.917969 219.199219 71.292969 219.199219 C 110.667969 219.199219 142.585938 187.632812 142.585938 148.695312 C 142.585938 109.753906 110.667969 78.1875 71.292969 78.1875 Z M 71.292969 78.1875 " clip-rule="nonzero"/></clipPath><clipPath id="e66d63db7a"><path d="M 276.195312 78.1875 L 418.5 78.1875 L 418.5 219.199219 L 276.195312 219.199219 Z M 276.195312 78.1875 " clip-rule="nonzero"/></clipPath><clipPath id="f471ab5991"><path d="M 347.484375 78.1875 C 308.113281 78.1875 276.195312 109.753906 276.195312 148.695312 C 276.195312 187.632812 308.113281 219.199219 347.484375 219.199219 C 386.859375 219.199219 418.777344 187.632812 418.777344 148.695312 C 418.777344 109.753906 386.859375 78.1875 347.484375 78.1875 Z M 347.484375 78.1875 " clip-rule="nonzero"/></clipPath><clipPath id="e2251d9b43"><path d="M 55.035156 78.1875 L 379 78.1875 L 379 219.199219 L 55.035156 219.199219 Z M 55.035156 78.1875 " clip-rule="nonzero"/></clipPath><clipPath id="e3b32b5004"><path d="M 82.734375 78.1875 L 351.429688 78.1875 C 366.730469 78.1875 379.132812 90.589844 379.132812 105.886719 L 379.132812 191.5 C 379.132812 206.800781 366.730469 219.199219 351.429688 219.199219 L 82.734375 219.199219 C 67.433594 219.199219 55.035156 206.800781 55.035156 191.5 L 55.035156 105.886719 C 55.035156 90.589844 67.433594 78.1875 82.734375 78.1875 Z M 82.734375 78.1875 " clip-rule="nonzero"/></clipPath></defs><g clip-path="url(#0ced67a6b0)"><g clip-path="url(#40fcde2292)"><path fill="#569da6" d="M 0 78.1875 L 142.667969 78.1875 L 142.667969 219.199219 L 0 219.199219 Z M 0 78.1875 " fill-opacity="1" fill-rule="nonzero"/></g></g><g clip-path="url(#e66d63db7a)"><g clip-path="url(#f471ab5991)"><path fill="#569da6" d="M 276.195312 78.1875 L 418.859375 78.1875 L 418.859375 219.199219 L 276.195312 219.199219 Z M 276.195312 78.1875 " fill-opacity="1" fill-rule="nonzero"/></g></g><g clip-path="url(#e2251d9b43)"><g clip-path="url(#e3b32b5004)"><path fill="#569da6" d="M 55.035156 78.1875 L 378.921875 78.1875 L 378.921875 219.199219 L 55.035156 219.199219 Z M 55.035156 78.1875 " fill-opacity="1" fill-rule="nonzero"/></g></g><g fill="#f9fafd" fill-opacity="1"><g transform="translate(83.342015, 168.02674)"><g><path d="M 18.203125 0 L 25.25 0 L 25.25 -21.1875 C 25.25 -29.25 22.515625 -32.15625 15.609375 -32.15625 L 2.46875 -32.15625 L 2.46875 -25.8125 L 13.328125 -25.8125 C 16.9375 -25.8125 18.203125 -24.234375 18.203125 -20.484375 Z M 2.984375 0 L 9.953125 0 L 9.953125 -18.203125 L 2.984375 -18.203125 Z M 2.984375 0 "/></g></g></g><g fill="#f9fafd" fill-opacity="1"><g transform="translate(111.312687, 168.02674)"><g><path d="M 12.875 0 L 19.921875 0 L 19.921875 -21.1875 C 19.921875 -29.25 17.1875 -32.15625 10.28125 -32.15625 L 0.890625 -32.15625 L 0.890625 -25.8125 L 8.0625 -25.8125 C 11.671875 -25.8125 12.875 -24.234375 12.875 -20.484375 Z M 12.875 0 "/></g></g></g><g fill="#f9fafd" fill-opacity="1"><g transform="translate(133.955617, 168.02674)"><g><path d="M 32.09375 -26.265625 C 32.09375 -27.78125 31.96875 -30.515625 31.84375 -32.15625 L 24.796875 -32.15625 C 25.0625 -30.203125 25.1875 -28.109375 25.1875 -26.328125 C 25.25 -13.515625 20.484375 -6.46875 10.65625 -5.640625 L 10.09375 -12.1875 C 17.25 -13.1875 20.171875 -18.015625 20.171875 -26.265625 C 20.171875 -27.65625 20.046875 -30.125 19.859375 -32.15625 L 13.515625 -32.15625 C 13.703125 -30.203125 13.890625 -27.09375 13.890625 -25.3125 C 13.890625 -20.75 12.8125 -18.015625 9.640625 -17.4375 L 8.3125 -32.15625 L 1.65625 -32.15625 L 4.953125 0 L 8.625 0.4375 C 23.78125 0.0625 32.21875 -9.328125 32.09375 -26.265625 Z M 32.09375 -26.265625 "/></g></g></g><g fill="#f9fafd" fill-opacity="1"><g transform="translate(167.507739, 168.02674)"><g><path d="M 1.578125 0 L 19.03125 0 C 19.796875 -5.390625 20.484375 -12.25 20.484375 -18.453125 C 20.484375 -28.609375 17.765625 -32.15625 9.953125 -32.15625 L 2.40625 -32.15625 L 2.40625 -25.8125 L 7.921875 -25.8125 C 12.25 -25.8125 13.515625 -23.71875 13.515625 -16.9375 C 13.515625 -13.828125 13.390625 -9.453125 13.0625 -6.34375 L 1.578125 -6.34375 Z M 1.578125 0 "/></g></g></g><g fill="#f9fafd" fill-opacity="1"><g transform="translate(190.277517, 168.02674)"><g><path d="M 18.203125 0 L 25.25 0 L 25.25 -21.1875 C 25.25 -29.25 22.515625 -32.15625 15.609375 -32.15625 L 2.46875 -32.15625 L 2.46875 -25.8125 L 13.328125 -25.8125 C 16.9375 -25.8125 18.203125 -24.234375 18.203125 -20.484375 Z M 2.984375 0 L 9.953125 0 L 9.953125 -18.203125 L 2.984375 -18.203125 Z M 2.984375 0 "/></g></g></g><g fill="#f9fafd" fill-opacity="1"><g transform="translate(218.248189, 168.02674)"><g/></g></g><g fill="#f9fafd" fill-opacity="1"><g transform="translate(227.571743, 168.02674)"><g><path d="M 18.078125 -32.15625 L 2.03125 -32.15625 L 2.03125 -25.8125 L 5.578125 -25.8125 L 5.578125 -6.34375 L 1.65625 -6.34375 L 1.65625 0 L 12.4375 0 L 12.4375 -25.8125 L 15.859375 -25.8125 C 19.53125 -25.8125 20.75 -24.234375 20.75 -20.484375 L 20.75 0 L 27.78125 0 L 27.78125 -21.1875 C 27.78125 -29.25 25 -32.15625 18.078125 -32.15625 Z M 18.078125 -32.15625 "/></g></g></g><g fill="#f9fafd" fill-opacity="1"><g transform="translate(258.016013, 168.02674)"><g><path d="M 19.984375 -6.34375 L 19.984375 -21.1875 C 19.984375 -29.1875 17.1875 -32.15625 9.953125 -32.15625 L 2.03125 -32.15625 L 2.03125 -25.8125 L 8.25 -25.8125 C 11.921875 -25.8125 12.9375 -24.234375 12.9375 -20.421875 L 12.9375 -6.34375 L 1.65625 -6.34375 L 1.65625 0 L 23.40625 0 L 23.40625 -6.34375 Z M 19.984375 -6.34375 "/></g></g></g><g fill="#f9fafd" fill-opacity="1"><g transform="translate(282.434853, 168.02674)"><g><path d="M 5.96875 -12.3125 L 13 -12.3125 L 13 -32.15625 L 1.015625 -32.15625 L 1.015625 -25.8125 L 5.96875 -25.8125 Z M 5.96875 -12.3125 "/></g></g></g><g fill="#f9fafd" fill-opacity="1"><g transform="translate(298.354677, 168.02674)"><g><path d="M 19.984375 -6.34375 L 19.984375 -21.1875 C 19.984375 -29.1875 17.1875 -32.15625 9.953125 -32.15625 L 2.03125 -32.15625 L 2.03125 -25.8125 L 8.25 -25.8125 C 11.921875 -25.8125 12.9375 -24.234375 12.9375 -20.421875 L 12.9375 -6.34375 L 1.65625 -6.34375 L 1.65625 0 L 23.40625 0 L 23.40625 -6.34375 Z M 19.984375 -6.34375 "/></g></g></g><g fill="#f9fafd" fill-opacity="1"><g transform="translate(322.773517, 168.02674)"><g><path d="M 15.359375 -31.71875 L 8.4375 -31.71875 L 8.1875 -34.515625 L 1.453125 -33.4375 L 4.5625 0.0625 L 10.34375 0.4375 C 21.625 -3.8125 26.578125 -11.609375 26.578125 -20.546875 C 26.578125 -28.796875 22.96875 -31.71875 15.359375 -31.71875 Z M 10.46875 -6.53125 L 8.875 -25.6875 L 14.34375 -25.6875 C 17.890625 -25.6875 19.40625 -24.046875 19.40625 -19.796875 C 19.46875 -14.265625 16.75 -9.078125 10.46875 -6.53125 Z M 10.46875 -6.53125 "/></g></g></g></svg>