<svg xmlns="http://www.w3.org/2000/svg" xmlns:xlink="http://www.w3.org/1999/xlink" width="559" zoomAndPan="magnify" viewBox="0 0 419.25 297.75" height="396" preserveAspectRatio="xMidYMid meet" version="1.0"><defs><g/><clipPath id="6e4b574c34"><path d="M 0 78.1875 L 142.667969 78.1875 L 142.667969 219.199219 L 0 219.199219 Z M 0 78.1875 " clip-rule="nonzero"/></clipPath><clipPath id="917bed770e"><path d="M 71.292969 78.1875 C 31.917969 78.1875 0 109.753906 0 148.695312 C 0 187.632812 31.917969 219.199219 71.292969 219.199219 C 110.667969 219.199219 142.585938 187.632812 142.585938 148.695312 C 142.585938 109.753906 110.667969 78.1875 71.292969 78.1875 Z M 71.292969 78.1875 " clip-rule="nonzero"/></clipPath><clipPath id="52ab22943a"><path d="M 276.195312 78.1875 L 418.5 78.1875 L 418.5 219.199219 L 276.195312 219.199219 Z M 276.195312 78.1875 " clip-rule="nonzero"/></clipPath><clipPath id="fb98ebaca5"><path d="M 347.484375 78.1875 C 308.113281 78.1875 276.195312 109.753906 276.195312 148.695312 C 276.195312 187.632812 308.113281 219.199219 347.484375 219.199219 C 386.859375 219.199219 418.777344 187.632812 418.777344 148.695312 C 418.777344 109.753906 386.859375 78.1875 347.484375 78.1875 Z M 347.484375 78.1875 " clip-rule="nonzero"/></clipPath><clipPath id="e1b431366d"><path d="M 55.035156 78.1875 L 379 78.1875 L 379 219.199219 L 55.035156 219.199219 Z M 55.035156 78.1875 " clip-rule="nonzero"/></clipPath><clipPath id="215fda0f48"><path d="M 82.734375 78.1875 L 351.429688 78.1875 C 366.730469 78.1875 379.132812 90.589844 379.132812 105.886719 L 379.132812 191.5 C 379.132812 206.800781 366.730469 219.199219 351.429688 219.199219 L 82.734375 219.199219 C 67.433594 219.199219 55.035156 206.800781 55.035156 191.5 L 55.035156 105.886719 C 55.035156 90.589844 67.433594 78.1875 82.734375 78.1875 Z M 82.734375 78.1875 " clip-rule="nonzero"/></clipPath></defs><g clip-path="url(#6e4b574c34)"><g clip-path="url(#917bed770e)"><path fill="#569da6" d="M 0 78.1875 L 142.667969 78.1875 L 142.667969 219.199219 L 0 219.199219 Z M 0 78.1875 " fill-opacity="1" fill-rule="nonzero"/></g></g><g clip-path="url(#52ab22943a)"><g clip-path="url(#fb98ebaca5)"><path fill="#569da6" d="M 276.195312 78.1875 L 418.859375 78.1875 L 418.859375 219.199219 L 276.195312 219.199219 Z M 276.195312 78.1875 " fill-opacity="1" fill-rule="nonzero"/></g></g><g clip-path="url(#e1b431366d)"><g clip-path="url(#215fda0f48)"><path fill="#569da6" d="M 55.035156 78.1875 L 378.921875 78.1875 L 378.921875 219.199219 L 55.035156 219.199219 Z M 55.035156 78.1875 " fill-opacity="1" fill-rule="nonzero"/></g></g><g fill="#f9fafd" fill-opacity="1"><g transform="translate(97.215633, 170.272722)"><g><path d="M 20.21875 0 L 28.03125 0 L 28.03125 -23.515625 C 28.03125 -32.46875 25 -35.703125 17.328125 -35.703125 L 2.75 -35.703125 L 2.75 -28.65625 L 14.78125 -28.65625 C 18.796875 -28.65625 20.21875 -26.90625 20.21875 -22.75 Z M 3.3125 0 L 11.0625 0 L 11.0625 -20.21875 L 3.3125 -20.21875 Z M 3.3125 0 "/></g></g></g><g fill="#f9fafd" fill-opacity="1"><g transform="translate(128.271274, 170.272722)"><g><path d="M 14.296875 0 L 22.109375 0 L 22.109375 -23.515625 C 22.109375 -32.46875 19.078125 -35.703125 11.40625 -35.703125 L 0.984375 -35.703125 L 0.984375 -28.65625 L 8.9375 -28.65625 C 12.953125 -28.65625 14.296875 -26.90625 14.296875 -22.75 Z M 14.296875 0 "/></g></g></g><g fill="#f9fafd" fill-opacity="1"><g transform="translate(153.411553, 170.272722)"><g><path d="M 35.640625 -29.15625 C 35.640625 -30.84375 35.5 -33.875 35.359375 -35.703125 L 27.53125 -35.703125 C 27.8125 -33.515625 27.953125 -31.203125 27.953125 -29.21875 C 28.03125 -15 22.75 -7.1875 11.828125 -6.265625 L 11.203125 -13.515625 C 19.15625 -14.640625 22.390625 -20 22.390625 -29.15625 C 22.390625 -30.703125 22.25 -33.453125 22.046875 -35.703125 L 15 -35.703125 C 15.21875 -33.515625 15.421875 -30.0625 15.421875 -28.09375 C 15.421875 -23.03125 14.21875 -20 10.703125 -19.359375 L 9.21875 -35.703125 L 1.828125 -35.703125 L 5.5 0 L 9.578125 0.5 C 26.40625 0.078125 35.78125 -10.359375 35.640625 -29.15625 Z M 35.640625 -29.15625 "/></g></g></g><g fill="#f9fafd" fill-opacity="1"><g transform="translate(190.664231, 170.272722)"><g><path d="M 1.765625 0 L 21.125 0 C 21.96875 -5.984375 22.75 -13.59375 22.75 -20.5 C 22.75 -31.765625 19.71875 -35.703125 11.0625 -35.703125 L 2.671875 -35.703125 L 2.671875 -28.65625 L 8.796875 -28.65625 C 13.59375 -28.65625 15 -26.34375 15 -18.796875 C 15 -15.359375 14.859375 -10.5 14.5 -7.046875 L 1.765625 -7.046875 Z M 1.765625 0 "/></g></g></g><g fill="#f9fafd" fill-opacity="1"><g transform="translate(215.945351, 170.272722)"><g><path d="M 20.21875 0 L 28.03125 0 L 28.03125 -23.515625 C 28.03125 -32.46875 25 -35.703125 17.328125 -35.703125 L 2.75 -35.703125 L 2.75 -28.65625 L 14.78125 -28.65625 C 18.796875 -28.65625 20.21875 -26.90625 20.21875 -22.75 Z M 3.3125 0 L 11.0625 0 L 11.0625 -20.21875 L 3.3125 -20.21875 Z M 3.3125 0 "/></g></g></g><g fill="#f9fafd" fill-opacity="1"><g transform="translate(257.352869, 170.272722)"><g><path d="M 24.578125 -35.703125 L 9.078125 -35.703125 L 9.15625 -45.78125 L 1.34375 -45 L 1.265625 -28.875 L 15.140625 -28.875 L 6.765625 0 L 14.859375 0 L 24.921875 -35.21875 Z M 24.578125 -35.703125 "/></g></g></g><g fill="#f9fafd" fill-opacity="1"><g transform="translate(282.845248, 170.272722)"><g><path d="M 1.625 0.703125 C 5.921875 -0.5 9.4375 -2.328125 12.8125 -5.421875 L 13.875 0 L 21.265625 0 L 19.578125 -9.5 L 19.21875 -24.359375 C 18.9375 -32.953125 16.546875 -35.84375 9.359375 -35.84375 C 7.109375 -35.84375 5.140625 -35.640625 2.890625 -35.421875 L 2.890625 -28.453125 C 4.296875 -28.65625 5.640625 -28.734375 6.6875 -28.734375 C 10.078125 -28.734375 11.625 -27.109375 11.765625 -22.390625 L 11.90625 -12.46875 C 8.796875 -10 5.640625 -8.3125 1.625 -7.046875 Z M 1.625 0.703125 "/></g></g></g><g fill="#f9fafd" fill-opacity="1"><g transform="translate(305.802488, 170.272722)"><g><path d="M 17.046875 -35.21875 L 9.359375 -35.21875 L 9.078125 -38.3125 L 1.625 -37.109375 L 5.078125 0.078125 L 11.484375 0.5 C 24.015625 -4.21875 29.5 -12.890625 29.5 -22.8125 C 29.5 -31.96875 25.5 -35.21875 17.046875 -35.21875 Z M 11.625 -7.25 L 9.859375 -28.515625 L 15.921875 -28.515625 C 19.859375 -28.515625 21.546875 -26.6875 21.546875 -21.96875 C 21.625 -15.84375 18.59375 -10.078125 11.625 -7.25 Z M 11.625 -7.25 "/></g></g></g></svg>