<svg xmlns="http://www.w3.org/2000/svg" xmlns:xlink="http://www.w3.org/1999/xlink" width="559" zoomAndPan="magnify" viewBox="0 0 419.25 297.75" height="396" preserveAspectRatio="xMidYMid meet" version="1.0"><defs><g/><clipPath id="735d15eb8e"><path d="M 0 69.707031 L 142.585938 69.707031 L 142.585938 217 L 0 217 Z M 0 69.707031 " clip-rule="nonzero"/></clipPath><clipPath id="caff8c4922"><path d="M 71.292969 69.707031 C 31.917969 69.707031 0 102.679688 0 143.355469 C 0 184.03125 31.917969 217.003906 71.292969 217.003906 C 110.667969 217.003906 142.585938 184.03125 142.585938 143.355469 C 142.585938 102.679688 110.667969 69.707031 71.292969 69.707031 Z M 71.292969 69.707031 " clip-rule="nonzero"/></clipPath><clipPath id="8f13b02987"><path d="M 276.195312 69.707031 L 418.5 69.707031 L 418.5 217 L 276.195312 217 Z M 276.195312 69.707031 " clip-rule="nonzero"/></clipPath><clipPath id="c375b8024e"><path d="M 347.484375 69.707031 C 308.113281 69.707031 276.195312 102.679688 276.195312 143.355469 C 276.195312 184.03125 308.113281 217.003906 347.484375 217.003906 C 386.859375 217.003906 418.777344 184.03125 418.777344 143.355469 C 418.777344 102.679688 386.859375 69.707031 347.484375 69.707031 Z M 347.484375 69.707031 " clip-rule="nonzero"/></clipPath><clipPath id="cc9a08dc03"><path d="M 55.035156 69.707031 L 379 69.707031 L 379 217.003906 L 55.035156 217.003906 Z M 55.035156 69.707031 " clip-rule="nonzero"/></clipPath><clipPath id="8f85a19630"><path d="M 82.734375 69.707031 L 351.429688 69.707031 C 366.730469 69.707031 379.132812 82.109375 379.132812 97.40625 L 379.132812 189.300781 C 379.132812 204.601562 366.730469 217.003906 351.429688 217.003906 L 82.734375 217.003906 C 67.433594 217.003906 55.035156 204.601562 55.035156 189.300781 L 55.035156 97.40625 C 55.035156 82.109375 67.433594 69.707031 82.734375 69.707031 Z M 82.734375 69.707031 " clip-rule="nonzero"/></clipPath></defs><g clip-path="url(#735d15eb8e)"><g clip-path="url(#caff8c4922)"><path fill="#569da6" d="M 0 69.707031 L 142.585938 69.707031 L 142.585938 216.746094 L 0 216.746094 Z M 0 69.707031 " fill-opacity="1" fill-rule="nonzero"/></g></g><g clip-path="url(#8f13b02987)"><g clip-path="url(#c375b8024e)"><path fill="#569da6" d="M 276.195312 69.707031 L 418.777344 69.707031 L 418.777344 216.746094 L 276.195312 216.746094 Z M 276.195312 69.707031 " fill-opacity="1" fill-rule="nonzero"/></g></g><g clip-path="url(#cc9a08dc03)"><g clip-path="url(#8f85a19630)"><path fill="#569da6" d="M 55.035156 69.707031 L 378.972656 69.707031 L 378.972656 217.003906 L 55.035156 217.003906 Z M 55.035156 69.707031 " fill-opacity="1" fill-rule="nonzero"/></g></g><g fill="#f9fafd" fill-opacity="1"><g transform="translate(77.270844, 166.28329)"><g><path d="M 21.640625 0 L 30.015625 0 L 30.015625 -25.1875 C 30.015625 -34.765625 26.765625 -38.234375 18.546875 -38.234375 L 2.9375 -38.234375 L 2.9375 -30.6875 L 15.828125 -30.6875 C 20.140625 -30.6875 21.640625 -28.8125 21.640625 -24.359375 Z M 3.546875 0 L 11.84375 0 L 11.84375 -21.640625 L 3.546875 -21.640625 Z M 3.546875 0 "/></g></g></g><g fill="#f9fafd" fill-opacity="1"><g transform="translate(110.524078, 166.28329)"><g><path d="M 1.890625 0 L 22.625 0 C 23.53125 -6.40625 24.359375 -14.546875 24.359375 -21.9375 C 24.359375 -34.015625 21.109375 -38.234375 11.84375 -38.234375 L 2.859375 -38.234375 L 2.859375 -30.6875 L 9.421875 -30.6875 C 14.546875 -30.6875 16.0625 -28.203125 16.0625 -20.140625 C 16.0625 -16.4375 15.90625 -11.234375 15.53125 -7.546875 L 1.890625 -7.546875 Z M 1.890625 0 "/></g></g></g><g fill="#f9fafd" fill-opacity="1"><g transform="translate(137.594165, 166.28329)"><g><path d="M 15.3125 0 L 23.671875 0 L 23.671875 -25.1875 C 23.671875 -34.765625 20.4375 -38.234375 12.21875 -38.234375 L 1.0625 -38.234375 L 1.0625 -30.6875 L 9.578125 -30.6875 C 13.875 -30.6875 15.3125 -28.8125 15.3125 -24.359375 Z M 15.3125 0 "/></g></g></g><g fill="#f9fafd" fill-opacity="1"><g transform="translate(164.51345, 166.28329)"><g><path d="M 27.140625 -38.234375 L 1.0625 -38.234375 L 1.0625 -30.6875 L 13.65625 -30.6875 L 13.65625 0 L 21.9375 0 L 21.9375 -30.6875 L 26.171875 -30.6875 Z M 27.140625 -38.234375 "/></g></g></g><g fill="#f9fafd" fill-opacity="1"><g transform="translate(192.488394, 166.28329)"><g><path d="M 21.640625 0 L 30.015625 0 L 30.015625 -25.1875 C 30.015625 -34.765625 26.765625 -38.234375 18.546875 -38.234375 L 2.9375 -38.234375 L 2.9375 -30.6875 L 15.828125 -30.6875 C 20.140625 -30.6875 21.640625 -28.8125 21.640625 -24.359375 Z M 3.546875 0 L 11.84375 0 L 11.84375 -21.640625 L 3.546875 -21.640625 Z M 3.546875 0 "/></g></g></g><g fill="#f9fafd" fill-opacity="1"><g transform="translate(225.741627, 166.28329)"><g/></g></g><g fill="#f9fafd" fill-opacity="1"><g transform="translate(236.826034, 166.28329)"><g><path d="M 26.3125 -38.234375 L 9.734375 -38.234375 L 9.796875 -49.015625 L 1.4375 -48.1875 L 1.359375 -30.921875 L 16.21875 -30.921875 L 7.234375 0 L 15.90625 0 L 26.6875 -37.703125 Z M 26.3125 -38.234375 "/></g></g></g><g fill="#f9fafd" fill-opacity="1"><g transform="translate(264.122345, 166.28329)"><g><path d="M 15.234375 -38.234375 L 1.203125 -38.234375 L 1.203125 -30.6875 L 6.859375 -30.6875 L 6.859375 0 L 15.234375 0 Z M 15.234375 -38.234375 "/></g></g></g><g fill="#f9fafd" fill-opacity="1"><g transform="translate(282.747176, 166.28329)"><g><path d="M 21.640625 0 L 30.015625 0 L 30.015625 -25.1875 C 30.015625 -34.765625 26.765625 -38.234375 18.546875 -38.234375 L 2.9375 -38.234375 L 2.9375 -30.6875 L 15.828125 -30.6875 C 20.140625 -30.6875 21.640625 -28.8125 21.640625 -24.359375 Z M 3.546875 0 L 11.84375 0 L 11.84375 -21.640625 L 3.546875 -21.640625 Z M 3.546875 0 "/></g></g></g><g fill="#f9fafd" fill-opacity="1"><g transform="translate(316.000409, 166.28329)"><g><path d="M 7.09375 -14.625 L 15.453125 -14.625 L 15.453125 -38.234375 L 1.203125 -38.234375 L 1.203125 -30.6875 L 7.09375 -30.6875 Z M 7.09375 -14.625 "/></g></g></g><g fill="#f9fafd" fill-opacity="1"><g transform="translate(334.926847, 166.28329)"><g><path d="M 8.515625 -38.234375 L 2.796875 -38.234375 L 2.796875 -30.6875 L 5.65625 -30.6875 C 9.578125 -30.6875 10.5625 -29.484375 10.5625 -24.953125 L 10.484375 -7.546875 L 1.65625 -7.546875 L 1.65625 0 L 18.546875 0 L 18.703125 -25.5625 C 18.703125 -35.671875 16.515625 -38.234375 8.515625 -38.234375 Z M 8.515625 -38.234375 "/></g></g></g></svg>