<svg xmlns="http://www.w3.org/2000/svg" xmlns:xlink="http://www.w3.org/1999/xlink" width="559" zoomAndPan="magnify" viewBox="0 0 419.25 297.75" height="396" preserveAspectRatio="xMidYMid meet" version="1.0"><defs><g/><clipPath id="822101fae0"><path d="M 0 74.820312 L 142.585938 74.820312 L 142.585938 222.976562 L 0 222.976562 Z M 0 74.820312 " clip-rule="nonzero"/></clipPath><clipPath id="fdbbbfe00c"><path d="M 71.292969 74.820312 C 31.917969 74.820312 0 107.894531 0 148.695312 C 0 189.492188 31.917969 222.566406 71.292969 222.566406 C 110.667969 222.566406 142.585938 189.492188 142.585938 148.695312 C 142.585938 107.894531 110.667969 74.820312 71.292969 74.820312 Z M 71.292969 74.820312 " clip-rule="nonzero"/></clipPath><clipPath id="c9162e59f5"><path d="M 276.195312 74.820312 L 418.5 74.820312 L 418.5 222.976562 L 276.195312 222.976562 Z M 276.195312 74.820312 " clip-rule="nonzero"/></clipPath><clipPath id="8c08f0e995"><path d="M 347.484375 74.820312 C 308.113281 74.820312 276.195312 107.894531 276.195312 148.695312 C 276.195312 189.492188 308.113281 222.566406 347.484375 222.566406 C 386.859375 222.566406 418.777344 189.492188 418.777344 148.695312 C 418.777344 107.894531 386.859375 74.820312 347.484375 74.820312 Z M 347.484375 74.820312 " clip-rule="nonzero"/></clipPath><clipPath id="db2df8a323"><path d="M 55.035156 74.820312 L 379.382812 74.820312 L 379.382812 222.566406 L 55.035156 222.566406 Z M 55.035156 74.820312 " clip-rule="nonzero"/></clipPath><clipPath id="0cc12f26e7"><path d="M 82.734375 74.820312 L 351.429688 74.820312 C 366.730469 74.820312 379.132812 87.222656 379.132812 102.523438 L 379.132812 194.867188 C 379.132812 210.164062 366.730469 222.566406 351.429688 222.566406 L 82.734375 222.566406 C 67.433594 222.566406 55.035156 210.164062 55.035156 194.867188 L 55.035156 102.523438 C 55.035156 87.222656 67.433594 74.820312 82.734375 74.820312 Z M 82.734375 74.820312 " clip-rule="nonzero"/></clipPath></defs><g clip-path="url(#822101fae0)"><g clip-path="url(#fdbbbfe00c)"><path fill="#569da6" d="M 0 74.820312 L 142.585938 74.820312 L 142.585938 222.417969 L 0 222.417969 Z M 0 74.820312 " fill-opacity="1" fill-rule="nonzero"/></g></g><g clip-path="url(#c9162e59f5)"><g clip-path="url(#8c08f0e995)"><path fill="#569da6" d="M 276.195312 74.820312 L 418.777344 74.820312 L 418.777344 222.417969 L 276.195312 222.417969 Z M 276.195312 74.820312 " fill-opacity="1" fill-rule="nonzero"/></g></g><g clip-path="url(#db2df8a323)"><g clip-path="url(#0cc12f26e7)"><path fill="#569da6" d="M 55.035156 74.820312 L 379.382812 74.820312 L 379.382812 222.566406 L 55.035156 222.566406 Z M 55.035156 74.820312 " fill-opacity="1" fill-rule="nonzero"/></g></g><g fill="#f9fafd" fill-opacity="1"><g transform="translate(59.29129, 168.403995)"><g><path d="M 18.78125 0 L 26.046875 0 L 26.046875 -21.859375 C 26.046875 -30.171875 23.234375 -33.171875 16.09375 -33.171875 L 2.546875 -33.171875 L 2.546875 -26.640625 L 13.734375 -26.640625 C 17.46875 -26.640625 18.78125 -25 18.78125 -21.140625 Z M 3.078125 0 L 10.28125 0 L 10.28125 -18.78125 L 3.078125 -18.78125 Z M 3.078125 0 "/></g></g></g><g fill="#f9fafd" fill-opacity="1"><g transform="translate(88.144131, 168.403995)"><g><path d="M 13.28125 0 L 20.546875 0 L 20.546875 -21.859375 C 20.546875 -30.171875 17.734375 -33.171875 10.59375 -33.171875 L 0.921875 -33.171875 L 0.921875 -26.640625 L 8.3125 -26.640625 C 12.046875 -26.640625 13.28125 -25 13.28125 -21.140625 Z M 13.28125 0 "/></g></g></g><g fill="#f9fafd" fill-opacity="1"><g transform="translate(111.5012, 168.403995)"><g><path d="M 33.109375 -27.09375 C 33.109375 -28.65625 32.984375 -31.46875 32.84375 -33.171875 L 25.59375 -33.171875 C 25.84375 -31.140625 25.984375 -28.984375 25.984375 -27.15625 C 26.046875 -13.9375 21.140625 -6.671875 11 -5.828125 L 10.40625 -12.5625 C 17.796875 -13.609375 20.8125 -18.578125 20.8125 -27.09375 C 20.8125 -28.53125 20.671875 -31.078125 20.484375 -33.171875 L 13.9375 -33.171875 C 14.140625 -31.140625 14.328125 -27.9375 14.328125 -26.109375 C 14.328125 -21.390625 13.21875 -18.578125 9.953125 -18 L 8.578125 -33.171875 L 1.703125 -33.171875 L 5.109375 0 L 8.90625 0.453125 C 24.546875 0.0625 33.25 -9.625 33.109375 -27.09375 Z M 33.109375 -27.09375 "/></g></g></g><g fill="#f9fafd" fill-opacity="1"><g transform="translate(146.111528, 168.403995)"><g><path d="M 1.640625 0 L 19.625 0 C 20.421875 -5.5625 21.140625 -12.625 21.140625 -19.046875 C 21.140625 -29.515625 18.328125 -33.171875 10.28125 -33.171875 L 2.484375 -33.171875 L 2.484375 -26.640625 L 8.1875 -26.640625 C 12.625 -26.640625 13.9375 -24.46875 13.9375 -17.46875 C 13.9375 -14.265625 13.8125 -9.75 13.484375 -6.546875 L 1.640625 -6.546875 Z M 1.640625 0 "/></g></g></g><g fill="#f9fafd" fill-opacity="1"><g transform="translate(169.599443, 168.403995)"><g><path d="M 18.78125 0 L 26.046875 0 L 26.046875 -21.859375 C 26.046875 -30.171875 23.234375 -33.171875 16.09375 -33.171875 L 2.546875 -33.171875 L 2.546875 -26.640625 L 13.734375 -26.640625 C 17.46875 -26.640625 18.78125 -25 18.78125 -21.140625 Z M 3.078125 0 L 10.28125 0 L 10.28125 -18.78125 L 3.078125 -18.78125 Z M 3.078125 0 "/></g></g></g><g fill="#f9fafd" fill-opacity="1"><g transform="translate(198.452284, 168.403995)"><g><path d="M 18.78125 0 L 26.046875 0 L 26.046875 -21.859375 C 26.046875 -30.171875 23.234375 -33.171875 16.09375 -33.171875 L 2.546875 -33.171875 L 2.546875 -26.640625 L 13.734375 -26.640625 C 17.46875 -26.640625 18.78125 -25 18.78125 -21.140625 Z M 3.078125 0 L 10.28125 0 L 10.28125 -18.78125 L 3.078125 -18.78125 Z M 3.078125 0 "/></g></g></g><g fill="#f9fafd" fill-opacity="1"><g transform="translate(227.305125, 168.403995)"><g/></g></g><g fill="#f9fafd" fill-opacity="1"><g transform="translate(236.922735, 168.403995)"><g><path d="M 18.65625 -33.171875 L 2.09375 -33.171875 L 2.09375 -26.640625 L 5.765625 -26.640625 L 5.765625 -6.546875 L 1.703125 -6.546875 L 1.703125 0 L 12.828125 0 L 12.828125 -26.640625 L 16.359375 -26.640625 C 20.15625 -26.640625 21.390625 -25 21.390625 -21.140625 L 21.390625 0 L 28.65625 0 L 28.65625 -21.859375 C 28.65625 -30.171875 25.78125 -33.171875 18.65625 -33.171875 Z M 18.65625 -33.171875 "/></g></g></g><g fill="#f9fafd" fill-opacity="1"><g transform="translate(268.327186, 168.403995)"><g><path d="M 6.15625 -12.6875 L 13.421875 -12.6875 L 13.421875 -33.171875 L 1.046875 -33.171875 L 1.046875 -26.640625 L 6.15625 -26.640625 Z M 6.15625 -12.6875 "/></g></g></g><g fill="#f9fafd" fill-opacity="1"><g transform="translate(284.749102, 168.403995)"><g><path d="M 7.390625 -33.171875 L 2.421875 -33.171875 L 2.421875 -26.640625 L 4.90625 -26.640625 C 8.3125 -26.640625 9.15625 -25.59375 9.15625 -21.65625 L 9.09375 -6.546875 L 1.4375 -6.546875 L 1.4375 0 L 16.09375 0 L 16.234375 -22.1875 C 16.234375 -30.953125 14.328125 -33.171875 7.390625 -33.171875 Z M 7.390625 -33.171875 "/></g></g></g><g fill="#f9fafd" fill-opacity="1"><g transform="translate(303.788041, 168.403995)"><g><path d="M 1.640625 0 L 19.625 0 C 20.421875 -5.5625 21.140625 -12.625 21.140625 -19.046875 C 21.140625 -29.515625 18.328125 -33.171875 10.28125 -33.171875 L 2.484375 -33.171875 L 2.484375 -26.640625 L 8.1875 -26.640625 C 12.625 -26.640625 13.9375 -24.46875 13.9375 -17.46875 C 13.9375 -14.265625 13.8125 -9.75 13.484375 -6.546875 L 1.640625 -6.546875 Z M 1.640625 0 "/></g></g></g><g fill="#f9fafd" fill-opacity="1"><g transform="translate(327.275944, 168.403995)"><g><path d="M 13.21875 -33.171875 L 1.046875 -33.171875 L 1.046875 -26.640625 L 5.953125 -26.640625 L 5.953125 0 L 13.21875 0 Z M 13.21875 -33.171875 "/></g></g></g><g fill="#f9fafd" fill-opacity="1"><g transform="translate(343.436167, 168.403995)"><g><path d="M 18.65625 -33.171875 L 2.09375 -33.171875 L 2.09375 -26.640625 L 5.765625 -26.640625 L 5.765625 -6.546875 L 1.703125 -6.546875 L 1.703125 0 L 12.828125 0 L 12.828125 -26.640625 L 16.359375 -26.640625 C 20.15625 -26.640625 21.390625 -25 21.390625 -21.140625 L 21.390625 0 L 28.65625 0 L 28.65625 -21.859375 C 28.65625 -30.171875 25.78125 -33.171875 18.65625 -33.171875 Z M 18.65625 -33.171875 "/></g></g></g></svg>