<svg xmlns="http://www.w3.org/2000/svg" xmlns:xlink="http://www.w3.org/1999/xlink" width="559" zoomAndPan="magnify" viewBox="0 0 419.25 297.75" height="396" preserveAspectRatio="xMidYMid meet" version="1.0"><defs><g/><clipPath id="a5130b671c"><path d="M 0 76.167969 L 142.585938 76.167969 L 142.585938 221 L 0 221 Z M 0 76.167969 " clip-rule="nonzero"/></clipPath><clipPath id="3e9aa6bc8f"><path d="M 71.292969 76.167969 C 31.917969 76.167969 0 108.640625 0 148.695312 C 0 188.75 31.917969 221.21875 71.292969 221.21875 C 110.667969 221.21875 142.585938 188.75 142.585938 148.695312 C 142.585938 108.640625 110.667969 76.167969 71.292969 76.167969 Z M 71.292969 76.167969 " clip-rule="nonzero"/></clipPath><clipPath id="4aaa3789e5"><path d="M 276.195312 76.167969 L 418.5 76.167969 L 418.5 221 L 276.195312 221 Z M 276.195312 76.167969 " clip-rule="nonzero"/></clipPath><clipPath id="b352a80449"><path d="M 347.484375 76.167969 C 308.113281 76.167969 276.195312 108.640625 276.195312 148.695312 C 276.195312 188.75 308.113281 221.21875 347.484375 221.21875 C 386.859375 221.21875 418.777344 188.75 418.777344 148.695312 C 418.777344 108.640625 386.859375 76.167969 347.484375 76.167969 Z M 347.484375 76.167969 " clip-rule="nonzero"/></clipPath><clipPath id="1a5e622ac6"><path d="M 55.035156 76.167969 L 379.136719 76.167969 L 379.136719 221.21875 L 55.035156 221.21875 Z M 55.035156 76.167969 " clip-rule="nonzero"/></clipPath><clipPath id="4a8bb68a66"><path d="M 82.734375 76.167969 L 351.429688 76.167969 C 366.730469 76.167969 379.132812 88.570312 379.132812 103.867188 L 379.132812 193.519531 C 379.132812 208.820312 366.730469 221.21875 351.429688 221.21875 L 82.734375 221.21875 C 67.433594 221.21875 55.035156 208.820312 55.035156 193.519531 L 55.035156 103.867188 C 55.035156 88.570312 67.433594 76.167969 82.734375 76.167969 Z M 82.734375 76.167969 " clip-rule="nonzero"/></clipPath></defs><g clip-path="url(#a5130b671c)"><g clip-path="url(#3e9aa6bc8f)"><path fill="#569da6" d="M 0 76.167969 L 142.585938 76.167969 L 142.585938 220.980469 L 0 220.980469 Z M 0 76.167969 " fill-opacity="1" fill-rule="nonzero"/></g></g><g clip-path="url(#4aaa3789e5)"><g clip-path="url(#b352a80449)"><path fill="#569da6" d="M 276.195312 76.167969 L 418.777344 76.167969 L 418.777344 220.980469 L 276.195312 220.980469 Z M 276.195312 76.167969 " fill-opacity="1" fill-rule="nonzero"/></g></g><g clip-path="url(#1a5e622ac6)"><g clip-path="url(#4a8bb68a66)"><path fill="#569da6" d="M 55.035156 76.167969 L 379.136719 76.167969 L 379.136719 221.21875 L 55.035156 221.21875 Z M 55.035156 76.167969 " fill-opacity="1" fill-rule="nonzero"/></g></g><g fill="#f9fafd" fill-opacity="1"><g transform="translate(124.986265, 171.996398)"><g><path d="M 20.3125 -39.75 L 12.234375 -39.75 L 12.234375 -42.734375 L 3.609375 -41.71875 L 3.609375 0 L 32.21875 0 L 32.21875 -26.1875 C 32.21875 -36.140625 28.859375 -39.75 20.3125 -39.75 Z M 12.234375 -7.765625 L 12.234375 -31.90625 L 17.5625 -31.90625 C 22.109375 -31.90625 23.59375 -29.953125 23.59375 -25.328125 L 23.59375 -7.765625 Z M 12.234375 -7.765625 "/></g></g></g><g fill="#f9fafd" fill-opacity="1"><g transform="translate(160.579302, 171.996398)"><g><path d="M 7.375 -15.203125 L 16.078125 -15.203125 L 16.078125 -39.75 L 1.25 -39.75 L 1.25 -31.90625 L 7.375 -31.90625 Z M 7.375 -15.203125 "/></g></g></g><g fill="#f9fafd" fill-opacity="1"><g transform="translate(180.257394, 171.996398)"><g><path d="M 1.953125 0 L 23.515625 0 C 24.46875 -6.671875 25.328125 -15.125 25.328125 -22.8125 C 25.328125 -35.359375 21.953125 -39.75 12.3125 -39.75 L 2.984375 -39.75 L 2.984375 -31.90625 L 9.796875 -31.90625 C 15.125 -31.90625 16.703125 -29.328125 16.703125 -20.9375 C 16.703125 -17.09375 16.546875 -11.6875 16.15625 -7.84375 L 1.953125 -7.84375 Z M 1.953125 0 "/></g></g></g><g fill="#f9fafd" fill-opacity="1"><g transform="translate(208.402551, 171.996398)"><g><path d="M 7.375 -15.203125 L 16.078125 -15.203125 L 16.078125 -39.75 L 1.25 -39.75 L 1.25 -31.90625 L 7.375 -31.90625 Z M 7.375 -15.203125 "/></g></g></g><g fill="#f9fafd" fill-opacity="1"><g transform="translate(228.080642, 171.996398)"><g><path d="M 8.859375 -39.75 L 2.90625 -39.75 L 2.90625 -31.90625 L 5.875 -31.90625 C 9.953125 -31.90625 10.984375 -30.65625 10.984375 -25.953125 L 10.90625 -7.84375 L 1.71875 -7.84375 L 1.71875 0 L 19.28125 0 L 19.4375 -26.578125 C 19.4375 -37.09375 17.171875 -39.75 8.859375 -39.75 Z M 8.859375 -39.75 "/></g></g></g><g fill="#f9fafd" fill-opacity="1"><g transform="translate(250.894688, 171.996398)"><g><path d="M 19.921875 -39.671875 L 12.3125 -39.671875 L 12.3125 -42.734375 L 3.609375 -41.875 L 3.609375 0 L 12.3125 0 L 12.3125 -31.828125 L 17.09375 -31.828125 C 21.640625 -31.828125 23.125 -29.875 23.125 -25.25 L 23.125 0 L 31.828125 0 L 31.828125 -26.109375 C 31.828125 -36.0625 28.390625 -39.671875 19.921875 -39.671875 Z M 19.921875 -39.671875 "/></g></g></g><g fill="#f9fafd" fill-opacity="1"><g transform="translate(286.100387, 171.996398)"><g/></g></g><g fill="#f9fafd" fill-opacity="1"><g transform="translate(297.625005, 171.996398)"><g/></g></g></svg>